<svg id="svg" version="1.1" xmlns="http://www.w3.org/2000/svg" xmlns:xlink="http://www.w3.org/1999/xlink" width="400" height="350" viewBox="0, 0, 400,350"><g id="svgg">
  <path id="path0" d="M183.041 56.359 C 178.764 56.510,177.075 56.689,176.970 57.005 C 176.871 57.301,177.230 57.443,178.074 57.443 C 179.299 57.443,180.726 57.701,183.888 58.491 C 184.755 58.708,185.858 58.967,186.340 59.066 C 186.821 59.166,187.531 59.375,187.916 59.530 C 188.301 59.686,189.562 60.090,190.718 60.429 C 194.008 61.392,194.793 61.669,196.770 62.562 C 197.786 63.022,198.714 63.398,198.830 63.398 C 199.101 63.398,203.289 65.532,204.904 66.492 C 205.578 66.893,206.681 67.494,207.356 67.827 C 211.335 69.794,218.989 75.876,227.664 83.962 L 229.247 85.438 218.476 96.224 C 212.553 102.156,207.706 107.102,207.706 107.216 C 207.706 107.329,210.031 107.523,212.872 107.647 C 218.391 107.888,219.616 108.081,219.612 108.710 C 219.611 108.928,214.803 113.905,208.929 119.769 C 203.055 125.633,198.249 130.559,198.249 130.715 C 198.249 130.871,203.961 130.998,210.944 130.998 L 223.639 130.998 234.571 120.070 L 245.503 109.142 249.634 109.221 L 253.765 109.299 263.485 99.518 C 268.831 94.138,273.205 89.506,273.205 89.224 C 273.205 88.942,271.993 87.626,270.511 86.300 C 269.030 84.973,267.016 83.152,266.036 82.252 C 264.014 80.397,254.509 73.555,253.954 73.555 C 253.754 73.555,253.590 73.398,253.590 73.205 C 253.590 73.012,253.421 72.855,253.213 72.855 C 253.006 72.855,251.785 72.242,250.499 71.492 C 246.018 68.881,244.308 67.967,242.644 67.291 C 241.556 66.849,240.720 66.504,238.704 65.662 C 234.991 64.112,231.517 62.815,229.947 62.392 C 226.079 61.351,224.279 60.833,223.643 60.578 C 223.257 60.424,222.548 60.213,222.067 60.109 C 221.585 60.004,220.166 59.675,218.914 59.377 C 216.586 58.822,213.908 58.363,209.721 57.803 C 208.421 57.628,207.165 57.367,206.930 57.221 C 206.694 57.075,203.738 56.834,200.361 56.685 C 196.984 56.536,193.039 56.355,191.594 56.283 C 190.149 56.210,186.300 56.245,183.041 56.359 M152.715 90.063 C 144.594 91.211,141.509 91.889,138.529 93.181 C 138.144 93.348,137.049 93.738,136.095 94.047 C 132.079 95.351,122.020 101.017,118.564 103.924 C 118.371 104.086,116.874 105.338,115.236 106.706 C 111.704 109.657,106.652 115.145,103.838 119.089 C 103.082 120.149,102.343 121.068,102.195 121.133 C 102.047 121.197,101.926 121.393,101.926 121.570 C 101.926 121.746,101.392 122.639,100.739 123.554 C 98.474 126.730,93.866 135.876,92.313 140.280 C 91.973 141.243,91.561 142.347,91.398 142.732 C 90.992 143.691,89.651 148.062,89.302 149.562 C 89.146 150.236,88.751 151.891,88.425 153.240 C 85.407 165.713,85.704 187.412,89.010 196.076 C 89.179 196.519,89.317 197.348,89.317 197.920 C 89.317 198.491,89.466 199.232,89.649 199.567 C 89.831 199.901,90.236 201.042,90.549 202.102 C 90.862 203.161,91.243 204.343,91.395 204.729 C 91.547 205.114,91.869 206.060,92.110 206.830 C 92.351 207.601,92.988 209.177,93.526 210.333 C 95.862 215.358,97.410 218.496,98.279 219.965 C 98.792 220.832,99.625 222.260,100.131 223.140 C 101.509 225.535,105.331 230.636,107.706 233.252 C 108.862 234.525,110.301 236.158,110.905 236.881 C 111.508 237.604,112.611 238.643,113.356 239.191 C 114.101 239.738,115.356 240.799,116.143 241.547 C 117.961 243.273,119.969 244.846,121.118 245.441 C 121.610 245.697,122.791 246.465,123.743 247.149 C 125.863 248.672,135.140 253.306,137.303 253.922 C 138.170 254.169,139.194 254.487,139.580 254.629 C 142.153 255.576,142.903 255.805,144.308 256.071 C 145.175 256.235,146.751 256.541,147.811 256.749 C 155.413 258.248,164.846 258.358,170.490 257.014 C 173.358 256.332,172.865 256.005,167.951 255.331 C 163.013 254.654,159.134 253.832,157.886 253.199 C 157.551 253.029,156.999 252.890,156.660 252.889 C 155.970 252.889,152.886 251.776,152.497 251.388 C 152.360 251.251,151.956 251.138,151.601 251.138 C 151.245 251.138,150.680 250.999,150.346 250.829 C 150.011 250.658,148.713 250.026,147.461 249.423 C 144.131 247.820,140.013 245.558,139.377 244.983 C 139.073 244.708,138.694 244.483,138.534 244.483 C 138.375 244.483,137.728 244.089,137.097 243.608 C 136.465 243.126,135.861 242.732,135.754 242.732 C 134.636 242.732,124.001 232.810,119.798 227.846 C 116.008 223.369,109.836 213.084,107.774 207.808 C 107.457 206.998,106.898 205.658,106.532 204.831 C 106.166 204.004,105.435 201.909,104.908 200.175 C 104.380 198.441,103.809 196.661,103.638 196.218 C 103.467 195.776,103.327 194.958,103.327 194.402 C 103.327 193.846,103.155 192.947,102.943 192.405 C 102.519 191.317,102.113 189.098,101.512 184.588 C 100.993 180.702,100.995 166.633,101.514 163.047 C 102.396 156.959,102.566 156.006,102.940 155.056 C 103.153 154.514,103.327 153.538,103.327 152.888 C 103.327 152.237,103.485 151.608,103.678 151.489 C 103.870 151.370,104.028 150.840,104.028 150.312 C 104.028 149.784,104.153 149.202,104.306 149.019 C 104.459 148.836,104.869 147.741,105.217 146.585 C 105.565 145.429,105.991 144.210,106.165 143.875 C 106.338 143.541,106.480 143.112,106.480 142.922 C 106.480 141.676,112.360 130.148,115.108 126.006 C 120.979 117.155,132.433 106.215,140.777 101.488 C 143.284 100.068,148.781 97.373,149.171 97.373 C 149.391 97.373,149.845 97.234,150.180 97.064 C 150.514 96.893,151.182 96.600,151.664 96.412 C 152.145 96.223,153.136 95.811,153.865 95.495 C 154.594 95.179,155.491 94.921,155.858 94.921 C 156.225 94.921,156.613 94.781,156.719 94.610 C 156.825 94.438,157.425 94.214,158.053 94.112 C 158.681 94.009,160.061 93.656,161.121 93.326 C 162.180 92.997,163.993 92.607,165.149 92.460 C 166.305 92.313,168.275 92.022,169.527 91.813 C 170.779 91.604,172.020 91.429,172.285 91.426 C 174.018 91.400,171.567 90.436,169.265 90.238 C 167.772 90.110,165.368 89.857,163.923 89.676 C 160.271 89.220,158.168 89.292,152.715 90.063 M170.578 124.570 C 169.904 124.656,168.249 124.967,166.900 125.261 C 165.552 125.555,164.054 125.875,163.573 125.971 C 162.636 126.160,162.055 126.369,159.971 127.272 C 159.242 127.588,158.498 127.846,158.318 127.846 C 157.878 127.846,152.462 131.058,150.172 132.677 C 143.781 137.196,136.625 147.287,133.975 155.517 C 133.634 156.576,133.238 157.758,133.096 158.144 C 132.799 158.946,131.932 162.766,131.347 165.849 C 130.783 168.819,131.081 180.891,131.797 184.063 C 132.101 185.412,132.452 186.988,132.576 187.566 C 132.701 188.144,132.926 188.932,133.078 189.317 C 133.672 190.827,134.945 194.612,135.109 195.359 C 135.205 195.792,135.422 196.147,135.592 196.147 C 135.763 196.147,135.902 196.342,135.902 196.579 C 135.902 196.996,137.642 200.693,138.007 201.051 C 138.344 201.381,140.105 204.188,140.105 204.394 C 140.105 204.808,142.074 207.240,144.281 209.550 C 148.177 213.628,154.102 217.822,158.494 219.611 C 159.072 219.846,160.018 220.236,160.595 220.477 C 162.436 221.244,164.122 221.716,165.016 221.716 C 165.494 221.716,166.081 221.913,166.321 222.153 C 166.907 222.739,180.442 222.771,181.961 222.190 C 182.539 221.969,183.909 221.524,185.005 221.201 C 188.203 220.258,188.152 219.959,184.497 218.228 C 181.196 216.664,177.499 214.471,177.291 213.952 C 177.227 213.792,176.972 213.660,176.724 213.660 C 176.040 213.660,166.949 204.440,165.577 202.355 C 163.898 199.804,161.943 196.246,161.203 194.396 C 161.010 193.914,160.439 192.496,159.935 191.243 C 159.430 189.991,159.018 188.621,159.018 188.199 C 159.019 187.777,158.862 187.334,158.669 187.215 C 158.476 187.096,158.319 186.546,158.319 185.992 C 158.319 185.438,158.146 184.541,157.934 183.998 C 156.233 179.638,156.630 167.462,158.697 160.571 C 158.874 159.979,159.019 159.183,159.019 158.802 C 159.019 158.421,159.151 157.959,159.312 157.776 C 159.472 157.593,159.879 156.655,160.214 155.692 C 161.023 153.374,161.425 152.434,162.239 150.963 C 162.612 150.289,163.004 149.461,163.111 149.124 C 163.217 148.787,163.443 148.511,163.614 148.511 C 163.784 148.511,163.924 148.314,163.924 148.074 C 163.926 147.501,165.576 145.028,166.999 143.463 C 167.619 142.782,168.126 142.144,168.126 142.044 C 168.126 141.641,170.182 139.487,172.818 137.128 C 174.189 135.901,177.115 133.535,177.408 133.416 C 177.601 133.338,178.889 132.526,180.271 131.611 C 181.654 130.696,182.956 129.947,183.166 129.947 C 183.560 129.947,183.801 129.840,186.165 128.612 C 188.423 127.438,188.062 127.078,183.363 125.822 C 179.916 124.901,173.162 124.239,170.578 124.570 M248.687 203.074 L 248.687 232.068 247.604 234.160 C 247.008 235.311,245.957 237.277,245.268 238.529 C 244.578 239.781,243.558 241.669,243.000 242.724 C 242.442 243.779,241.805 244.860,241.584 245.126 C 241.364 245.391,241.019 245.906,240.819 246.270 C 236.934 253.323,224.704 267.351,218.389 271.999 C 217.619 272.566,216.673 273.316,216.288 273.667 C 215.417 274.457,207.862 279.510,207.550 279.510 C 207.424 279.510,206.502 280.027,205.500 280.660 C 202.977 282.253,197.143 285.072,195.823 285.336 C 195.223 285.456,194.647 285.692,194.543 285.860 C 194.439 286.027,194.001 286.165,193.570 286.165 C 193.138 286.165,192.635 286.290,192.452 286.443 C 192.269 286.596,191.252 286.986,190.193 287.310 C 189.133 287.634,187.503 288.142,186.571 288.440 C 185.639 288.737,183.747 289.152,182.368 289.363 C 180.989 289.573,179.498 289.885,179.055 290.057 C 178.613 290.228,177.838 290.368,177.333 290.368 C 175.157 290.368,177.254 290.926,180.851 291.305 C 186.949 291.946,206.528 291.417,208.787 290.550 C 209.092 290.433,210.509 290.182,211.938 289.992 C 216.472 289.389,218.677 289.012,221.016 288.442 C 222.268 288.137,223.966 287.794,224.789 287.680 C 225.612 287.566,226.370 287.336,226.474 287.169 C 226.577 287.002,226.919 286.865,227.233 286.865 C 227.788 286.865,233.093 285.326,234.501 284.756 C 234.886 284.600,236.068 284.191,237.128 283.847 C 238.187 283.503,239.204 283.095,239.387 282.942 C 239.570 282.788,239.915 282.662,240.154 282.662 C 240.540 282.662,242.507 281.791,248.511 278.960 C 250.426 278.057,252.978 276.647,253.674 276.106 C 253.917 275.918,254.825 275.387,255.692 274.927 C 256.559 274.467,257.741 273.731,258.319 273.292 C 258.897 272.853,259.527 272.378,259.720 272.236 C 259.913 272.095,260.651 271.546,261.360 271.016 C 262.070 270.486,262.805 270.053,262.995 270.053 C 263.184 270.053,263.392 269.934,263.456 269.790 C 263.520 269.645,264.361 268.902,265.324 268.138 C 266.287 267.374,267.620 266.214,268.286 265.561 C 268.952 264.908,270.055 263.965,270.738 263.465 C 271.421 262.966,272.312 262.196,272.718 261.754 C 280.995 252.761,286.169 245.618,290.810 236.778 C 291.771 234.947,292.695 233.300,292.863 233.117 C 293.033 232.933,293.170 219.721,293.170 203.433 L 293.170 174.081 270.928 174.081 L 248.687 174.081 248.687 203.074 " stroke="none" fill="#233328" fill-rule="evenodd"></path>
</g></svg>
