<svg width="62" height="64" viewBox="0 0 62 64" fill="none" xmlns="http://www.w3.org/2000/svg">
<g clip-path="url(#clip0_118_1432)">
<path d="M31.9978 52.115C14.8655 52.115 0.925781 43.0837 0.925781 31.9979C0.925781 20.912 14.8655 11.9033 31.9978 11.9033C42.5328 11.9033 52.2459 15.2765 57.9853 20.9346C59.0679 21.9906 60.0214 23.1714 60.8256 24.4523C60.8508 24.4952 60.8673 24.5428 60.8742 24.5921C60.881 24.6415 60.8781 24.6918 60.8655 24.74C60.8529 24.7882 60.8309 24.8335 60.8008 24.8732C60.7708 24.9129 60.7331 24.9464 60.6901 24.9715L58.1388 26.4752C58.0565 26.5239 57.9584 26.5383 57.8656 26.5155C57.7727 26.4928 57.6925 26.4345 57.6421 26.3533C57.0007 25.3425 56.2429 24.4105 55.3843 23.5762C50.3268 18.609 41.58 15.6242 31.9978 15.6242C16.9066 15.6242 4.63312 22.9847 4.63312 32.034C4.63312 41.0833 16.9066 48.4483 31.9978 48.4483C43.4088 48.4483 53.6729 44.1314 57.6692 37.6785C57.718 37.5969 57.7971 37.5378 57.8893 37.5141C57.9814 37.4905 58.0792 37.5041 58.1614 37.5521L60.7217 39.0513C60.7648 39.0764 60.8025 39.1099 60.8325 39.1497C60.8624 39.1896 60.8842 39.235 60.8964 39.2834C60.9085 39.3318 60.911 39.3821 60.9035 39.4314C60.896 39.4807 60.8787 39.528 60.8527 39.5706C56.1429 47.1884 44.8764 52.115 31.9978 52.115Z" fill="#E4DEE6"/>
<path d="M31.9977 11.9031C42.5327 11.9031 52.2458 15.2763 57.9852 20.9344C59.0678 21.9904 60.0213 23.1712 60.8255 24.452C60.8757 24.5386 60.89 24.6413 60.8656 24.7383C60.8411 24.8353 60.7798 24.9189 60.6946 24.9713L58.1387 26.475C58.0829 26.5086 58.0187 26.5258 57.9536 26.5247C57.8913 26.525 57.8301 26.5094 57.7755 26.4793C57.721 26.4493 57.6751 26.4059 57.642 26.3531C57.0006 25.3423 56.2428 24.4102 55.3842 23.576C50.3267 18.6088 41.5799 15.624 31.9977 15.624C16.9065 15.624 4.63304 22.9845 4.63304 32.0338C4.63304 41.0831 16.9065 48.4481 31.9977 48.4481C43.4087 48.4481 53.6728 44.1311 57.6691 37.6783C57.7005 37.6248 57.7454 37.5804 57.7992 37.5495C57.8531 37.5186 57.9141 37.5023 57.9762 37.5022C58.041 37.5032 58.1046 37.5203 58.1613 37.5519L60.7217 39.0511C60.7648 39.0762 60.8024 39.1097 60.8324 39.1495C60.8624 39.1894 60.8841 39.2348 60.8963 39.2832C60.9085 39.3316 60.9109 39.3819 60.9034 39.4312C60.8959 39.4805 60.8786 39.5278 60.8526 39.5704C56.1428 47.2243 44.8763 52.1509 31.9977 52.1509C14.8654 52.1509 0.925698 43.1196 0.925698 32.0338C0.925698 20.9479 14.8654 11.9031 31.9977 11.9031ZM31.9977 10.9774C14.3552 10.9774 0 20.4151 0 32.0202C0 43.6254 14.3552 53.0676 31.9977 53.0676C45.1382 53.0676 56.775 47.9559 61.6428 40.04C61.7343 39.8934 61.795 39.7298 61.8214 39.559C61.8478 39.3883 61.8393 39.2139 61.7964 39.0465C61.7533 38.8782 61.6772 38.7201 61.5725 38.5813C61.4679 38.4426 61.3368 38.326 61.1868 38.2383L58.6264 36.7391C58.4286 36.6249 58.2045 36.5641 57.9762 36.563C57.7566 36.5633 57.5407 36.6194 57.3488 36.726C57.1568 36.8327 56.9952 36.9863 56.8789 37.1726C53.0406 43.3545 43.0384 47.5088 31.9977 47.5088C24.8676 47.5088 18.1664 45.8471 13.1315 42.8261C8.24555 39.8955 5.55874 36.0527 5.55874 32.0202C5.55874 27.9878 8.26812 24.145 13.1315 21.2143C18.1664 18.1979 24.8721 16.5362 31.9977 16.5362C41.3451 16.5362 49.8435 19.4081 54.7339 24.2127C55.5398 24.9962 56.2521 25.8705 56.8563 26.8182C57.0362 27.1024 57.3192 27.3059 57.6459 27.3859C57.9726 27.4658 58.3175 27.4162 58.6084 27.2472L61.1642 25.739C61.4634 25.5565 61.6803 25.2652 61.7693 24.9262C61.8101 24.7591 61.8172 24.5856 61.79 24.4158C61.7629 24.246 61.7021 24.0833 61.6112 23.9373C60.7695 22.5935 59.7706 21.355 58.6355 20.248C52.729 14.4364 42.7675 10.9639 31.9932 10.9639L31.9977 10.9774Z" fill="#1E3427"/>
<path d="M60.6041 30.1464H24.1043C24.0557 30.1464 24.0075 30.156 23.9626 30.1746C23.9177 30.1932 23.8769 30.2205 23.8425 30.2549C23.8081 30.2892 23.7808 30.3301 23.7622 30.375C23.7436 30.4199 23.734 30.4681 23.734 30.5167V33.4789C23.7334 33.528 23.7426 33.5766 23.7609 33.622C23.7793 33.6675 23.8064 33.7088 23.8409 33.7437C23.8753 33.7786 23.9163 33.8062 23.9616 33.8251C24.0068 33.844 24.0553 33.8537 24.1043 33.8537H47.5133C47.5643 33.853 47.6149 33.8628 47.6619 33.8826C47.7089 33.9023 47.7513 33.9315 47.7864 33.9684C47.8216 34.0053 47.8488 34.049 47.8663 34.0969C47.8838 34.1448 47.8912 34.1957 47.8881 34.2466C47.2017 48.2902 40.1303 59.367 31.537 59.367C22.5058 59.367 15.1227 47.0891 15.1227 31.9978C15.1227 16.9066 22.4877 4.6286 31.537 4.6286C39.1549 4.6286 45.8516 13.5876 47.5449 25.983C47.5511 26.0308 47.5666 26.0769 47.5906 26.1187C47.6146 26.1604 47.6465 26.1971 47.6847 26.2264C47.7229 26.2558 47.7665 26.2773 47.813 26.2898C47.8596 26.3023 47.9081 26.3054 47.9559 26.2991L50.8955 25.9243C50.9943 25.9097 51.0835 25.8572 51.1442 25.778C51.2049 25.6987 51.2323 25.599 51.2206 25.4998C49.2744 11.235 41.0379 0.925781 31.537 0.925781C20.4421 0.925781 11.4199 14.8655 11.4199 31.9978C11.4199 49.1301 20.4512 63.0744 31.537 63.0744C42.1488 63.0744 50.8684 50.3132 51.6 34.206C51.6035 34.1113 51.6436 34.0217 51.7118 33.956C51.78 33.8904 51.871 33.8537 51.9657 33.8537H60.6041C60.6531 33.8537 60.7017 33.844 60.7469 33.8251C60.7921 33.8062 60.8331 33.7786 60.8676 33.7437C60.902 33.7088 60.9292 33.6675 60.9475 33.622C60.9659 33.5766 60.975 33.528 60.9744 33.4789V30.5167C60.9744 30.4185 60.9354 30.3243 60.866 30.2549C60.7965 30.1854 60.7023 30.1464 60.6041 30.1464Z" fill="#E4DEE6"/>
<path d="M31.537 0.925336C41.0198 0.925336 49.2744 11.2345 51.2206 25.4994C51.2322 25.5985 51.2048 25.6983 51.1441 25.7775C51.0834 25.8568 50.9942 25.9093 50.8955 25.9238L47.9558 26.2987H47.9061C47.8175 26.2973 47.7323 26.2642 47.666 26.2054C47.5997 26.1465 47.5568 26.0659 47.5449 25.978C45.8515 13.5826 39.1549 4.62816 31.537 4.62816C22.5057 4.62816 15.1227 16.9016 15.1227 31.9929C15.1227 47.0841 22.4877 59.3621 31.537 59.3621C40.1167 59.3621 47.2017 48.2852 47.8881 34.2416C47.8912 34.1908 47.8838 34.1398 47.8663 34.0919C47.8488 34.0441 47.8216 34.0003 47.7864 33.9634C47.7512 33.9265 47.7088 33.8973 47.6618 33.8776C47.6148 33.8579 47.5642 33.8481 47.5133 33.8488H24.1043C24.0552 33.8488 24.0067 33.8391 23.9615 33.8202C23.9163 33.8013 23.8753 33.7736 23.8408 33.7387C23.8064 33.7039 23.7792 33.6625 23.7609 33.6171C23.7425 33.5716 23.7334 33.523 23.734 33.474V30.5117C23.734 30.4631 23.7436 30.415 23.7622 30.37C23.7808 30.3251 23.808 30.2843 23.8424 30.2499C23.8768 30.2155 23.9176 30.1882 23.9626 30.1696C24.0075 30.151 24.0556 30.1415 24.1043 30.1415H60.6041C60.7023 30.1415 60.7965 30.1805 60.8659 30.2499C60.9354 30.3193 60.9744 30.4135 60.9744 30.5117V33.474C60.975 33.523 60.9658 33.5716 60.9475 33.6171C60.9292 33.6625 60.902 33.7039 60.8675 33.7387C60.8331 33.7736 60.792 33.8013 60.7468 33.8202C60.7016 33.8391 60.6531 33.8488 60.6041 33.8488H51.9657C51.871 33.8487 51.78 33.8854 51.7117 33.9511C51.6435 34.0168 51.6034 34.1064 51.5999 34.201C50.8684 50.3083 42.1487 63.0694 31.537 63.0694C20.4421 63.0694 11.4199 49.1297 11.4199 31.9929C11.4199 14.856 20.4511 0.920816 31.537 0.920816V0.925336ZM31.537 -0.00488281C19.9318 -0.00488281 10.4941 14.3503 10.4941 31.9929C10.4941 49.6354 19.9318 63.9951 31.537 63.9951C36.9557 63.9951 42.1171 60.8703 46.0367 55.2032C49.7711 49.7844 52.0605 42.5594 52.4985 34.7745H60.6267C60.9716 34.7745 61.3024 34.6375 61.5463 34.3936C61.7902 34.1497 61.9272 33.8189 61.9272 33.474V30.5117C61.926 30.1676 61.7884 29.838 61.5447 29.5951C61.3009 29.3521 60.9708 29.2157 60.6267 29.2157H24.1043C23.7601 29.2157 23.43 29.3521 23.1862 29.5951C22.9425 29.838 22.8049 30.1676 22.8037 30.5117V33.474C22.8037 33.8189 22.9408 34.1497 23.1847 34.3936C23.4286 34.6375 23.7593 34.7745 24.1043 34.7745H46.9308C46.1044 48.0866 39.4077 58.4364 31.537 58.4364C27.5 58.4364 23.6617 55.727 20.7311 50.8591C17.7147 45.8287 16.0529 39.1185 16.0529 31.9929C16.0529 24.8672 17.7147 18.1615 20.7311 13.1266C23.6617 8.24065 27.5045 5.55385 31.537 5.55385C38.6536 5.55385 45.0026 14.1968 46.6282 26.1045C46.6706 26.4138 46.8232 26.6973 47.058 26.9031C47.2928 27.1088 47.594 27.2229 47.9061 27.2244H48.0732L51.0129 26.8496C51.1832 26.8273 51.3475 26.7717 51.4962 26.6858C51.645 26.5999 51.7753 26.4856 51.8798 26.3492C51.9842 26.2129 52.0608 26.0572 52.105 25.8913C52.1491 25.7253 52.1601 25.5522 52.1373 25.382C51.1755 18.315 48.6151 11.8938 44.9123 7.29237C41.1508 2.59612 36.3958 0.00866352 31.5144 0.00866352L31.537 -0.00488281Z" fill="#1E3427"/>
<path d="M60.6041 30.1459H24.1043C24.0557 30.1459 24.0075 30.1555 23.9626 30.1741C23.9177 30.1927 23.8769 30.22 23.8425 30.2544C23.8081 30.2888 23.7808 30.3296 23.7622 30.3745C23.7436 30.4194 23.734 30.4676 23.734 30.5162V33.4785C23.7334 33.5275 23.7426 33.5761 23.7609 33.6215C23.7793 33.667 23.8064 33.7083 23.8409 33.7432C23.8753 33.7781 23.9163 33.8057 23.9616 33.8246C24.0068 33.8435 24.0553 33.8533 24.1043 33.8532H47.5133C47.5643 33.8525 47.6149 33.8624 47.6619 33.8821C47.7089 33.9018 47.7513 33.931 47.7864 33.9679C47.8216 34.0048 47.8488 34.0485 47.8663 34.0964C47.8838 34.1443 47.8912 34.1952 47.8881 34.2461C47.2017 48.2897 40.1303 59.3666 31.537 59.3666C22.5058 59.3666 15.1227 47.0886 15.1227 31.9973C15.1227 16.9061 22.4877 4.62811 31.537 4.62811C39.1549 4.62811 45.8516 13.5871 47.5449 25.9825C47.5511 26.0303 47.5666 26.0764 47.5906 26.1182C47.6146 26.1599 47.6465 26.1966 47.6847 26.2259C47.7229 26.2553 47.7665 26.2769 47.813 26.2893C47.8596 26.3018 47.9081 26.3049 47.9559 26.2986L50.8955 25.9238C50.9943 25.9092 51.0835 25.8567 51.1442 25.7775C51.2049 25.6983 51.2323 25.5985 51.2206 25.4993C49.2744 11.2345 41.0379 0.925293 31.537 0.925293C20.4421 0.925293 11.4199 14.865 11.4199 31.9973C11.4199 49.1296 20.4512 63.0739 31.537 63.0739C42.1488 63.0739 50.8684 50.3127 51.6 34.2055C51.6035 34.1108 51.6436 34.0212 51.7118 33.9556C51.78 33.8899 51.871 33.8532 51.9657 33.8532H60.6041C60.6531 33.8533 60.7017 33.8435 60.7469 33.8246C60.7921 33.8057 60.8331 33.7781 60.8676 33.7432C60.902 33.7083 60.9292 33.667 60.9475 33.6215C60.9659 33.5761 60.975 33.5275 60.9744 33.4785V30.5162C60.9744 30.418 60.9354 30.3238 60.866 30.2544C60.7965 30.1849 60.7023 30.1459 60.6041 30.1459Z" fill="#E4DEE6"/>
<path d="M31.537 0.925336C41.0198 0.925336 49.2744 11.2345 51.2206 25.4994C51.2322 25.5985 51.2048 25.6983 51.1441 25.7775C51.0834 25.8568 50.9942 25.9093 50.8955 25.9238L47.9558 26.2987H47.9061C47.8175 26.2973 47.7323 26.2642 47.666 26.2054C47.5997 26.1465 47.5568 26.0659 47.5449 25.978C45.8515 13.5826 39.1549 4.62816 31.537 4.62816C22.5057 4.62816 15.1227 16.9016 15.1227 31.9929C15.1227 47.0841 22.4877 59.3621 31.537 59.3621C40.1167 59.3621 47.2017 48.2852 47.8881 34.2416C47.8912 34.1908 47.8838 34.1398 47.8663 34.0919C47.8488 34.0441 47.8216 34.0003 47.7864 33.9634C47.7512 33.9265 47.7088 33.8973 47.6618 33.8776C47.6148 33.8579 47.5642 33.8481 47.5133 33.8488H24.1043C24.0552 33.8488 24.0067 33.8391 23.9615 33.8202C23.9163 33.8013 23.8753 33.7736 23.8408 33.7387C23.8064 33.7039 23.7792 33.6625 23.7609 33.6171C23.7425 33.5716 23.7334 33.523 23.734 33.474V30.5117C23.734 30.4631 23.7436 30.415 23.7622 30.37C23.7808 30.3251 23.808 30.2843 23.8424 30.2499C23.8768 30.2155 23.9176 30.1882 23.9626 30.1696C24.0075 30.151 24.0556 30.1415 24.1043 30.1415H60.6041C60.7023 30.1415 60.7965 30.1805 60.8659 30.2499C60.9354 30.3193 60.9744 30.4135 60.9744 30.5117V33.474C60.975 33.523 60.9658 33.5716 60.9475 33.6171C60.9292 33.6625 60.902 33.7039 60.8675 33.7387C60.8331 33.7736 60.792 33.8013 60.7468 33.8202C60.7016 33.8391 60.6531 33.8488 60.6041 33.8488H51.9657C51.871 33.8487 51.78 33.8854 51.7117 33.9511C51.6435 34.0168 51.6034 34.1064 51.5999 34.201C50.8684 50.3083 42.1487 63.0694 31.537 63.0694C20.4421 63.0694 11.4199 49.1297 11.4199 31.9929C11.4199 14.856 20.4511 0.920816 31.537 0.920816V0.925336ZM31.537 -0.00488281C19.9318 -0.00488281 10.4941 14.3503 10.4941 31.9929C10.4941 49.6354 19.9318 63.9951 31.537 63.9951C36.9557 63.9951 42.1171 60.8703 46.0367 55.2032C49.7711 49.7844 52.0605 42.5594 52.4985 34.7745H60.6267C60.9716 34.7745 61.3024 34.6375 61.5463 34.3936C61.7902 34.1497 61.9272 33.8189 61.9272 33.474V30.5117C61.926 30.1676 61.7884 29.838 61.5447 29.5951C61.3009 29.3521 60.9708 29.2157 60.6267 29.2157H24.1043C23.7601 29.2157 23.43 29.3521 23.1862 29.5951C22.9425 29.838 22.8049 30.1676 22.8037 30.5117V33.474C22.8037 33.8189 22.9408 34.1497 23.1847 34.3936C23.4286 34.6375 23.7593 34.7745 24.1043 34.7745H46.9308C46.1044 48.0866 39.4077 58.4364 31.537 58.4364C27.5 58.4364 23.6617 55.727 20.7311 50.8591C17.7147 45.8287 16.0529 39.1185 16.0529 31.9929C16.0529 24.8672 17.7147 18.1615 20.7311 13.1266C23.6617 8.24065 27.5045 5.55385 31.537 5.55385C38.6536 5.55385 45.0026 14.1968 46.6282 26.1045C46.6706 26.4138 46.8232 26.6973 47.058 26.9031C47.2928 27.1088 47.594 27.2229 47.9061 27.2244H48.0732L51.0129 26.8496C51.1832 26.8273 51.3475 26.7717 51.4962 26.6858C51.645 26.5999 51.7753 26.4856 51.8798 26.3492C51.9842 26.2129 52.0608 26.0572 52.105 25.8913C52.1491 25.7253 52.1601 25.5522 52.1373 25.382C51.1755 18.315 48.6151 11.8938 44.9123 7.29237C41.1508 2.59612 36.3958 0.00866352 31.5144 0.00866352L31.537 -0.00488281Z" fill="#1E3427"/>
<path d="M31.9978 52.1145C14.8655 52.1145 0.925781 43.0832 0.925781 31.9974C0.925781 20.9115 14.8655 11.9028 31.9978 11.9028C42.5328 11.9028 52.2459 15.276 57.9853 20.9341C59.0679 21.9901 60.0214 23.1709 60.8256 24.4518C60.8508 24.4948 60.8673 24.5423 60.8742 24.5917C60.881 24.641 60.8781 24.6913 60.8655 24.7395C60.8529 24.7877 60.8309 24.833 60.8008 24.8727C60.7708 24.9125 60.7331 24.9459 60.6901 24.9711L58.1388 26.4748C58.0565 26.5234 57.9584 26.5378 57.8656 26.5151C57.7727 26.4923 57.6925 26.434 57.6421 26.3528C57.0007 25.342 56.2429 24.41 55.3843 23.5757C50.3268 18.6085 41.58 15.6237 31.9978 15.6237C16.9066 15.6237 4.63312 22.9842 4.63312 32.0335C4.63312 41.0828 16.9066 48.4478 31.9978 48.4478C43.4088 48.4478 53.6729 44.1309 57.6692 37.678C57.718 37.5964 57.7971 37.5373 57.8893 37.5136C57.9814 37.49 58.0792 37.5036 58.1614 37.5516L60.7217 39.0508C60.7648 39.0759 60.8025 39.1094 60.8325 39.1493C60.8624 39.1891 60.8842 39.2346 60.8964 39.2829C60.9085 39.3313 60.911 39.3816 60.9035 39.4309C60.896 39.4802 60.8787 39.5275 60.8527 39.5701C56.1429 47.188 44.8764 52.1145 31.9978 52.1145Z" fill="#E4DEE6"/>
<path d="M31.9977 11.9026C42.5327 11.9026 52.2458 15.2758 57.9852 20.9339C59.0678 21.9899 60.0213 23.1707 60.8255 24.4516C60.8757 24.5381 60.89 24.6408 60.8656 24.7378C60.8411 24.8348 60.7798 24.9184 60.6946 24.9709L58.1387 26.4746C58.0829 26.5081 58.0187 26.5253 57.9536 26.5242C57.8913 26.5245 57.8301 26.5089 57.7755 26.4789C57.721 26.4488 57.6751 26.4054 57.642 26.3526C57.0006 25.3418 56.2428 24.4098 55.3842 23.5755C50.3267 18.6083 41.5799 15.6235 31.9977 15.6235C16.9065 15.6235 4.63304 22.984 4.63304 32.0333C4.63304 41.0826 16.9065 48.4476 31.9977 48.4476C43.4087 48.4476 53.6728 44.1307 57.6691 37.6778C57.7005 37.6243 57.7454 37.5799 57.7992 37.549C57.8531 37.5181 57.9141 37.5018 57.9762 37.5017C58.041 37.5027 58.1046 37.5198 58.1613 37.5514L60.7217 39.0506C60.7648 39.0757 60.8024 39.1092 60.8324 39.149C60.8624 39.1889 60.8841 39.2343 60.8963 39.2827C60.9085 39.3311 60.9109 39.3814 60.9034 39.4307C60.8959 39.48 60.8786 39.5273 60.8526 39.5699C56.1428 47.2239 44.8763 52.1504 31.9977 52.1504C14.8654 52.1504 0.925698 43.1192 0.925698 32.0333C0.925698 20.9474 14.8654 11.9026 31.9977 11.9026ZM31.9977 10.9769C14.3552 10.9769 0 20.4146 0 32.0197C0 43.6249 14.3552 53.0671 31.9977 53.0671C45.1382 53.0671 56.775 47.9554 61.6428 40.0395C61.7343 39.8929 61.795 39.7293 61.8214 39.5585C61.8478 39.3878 61.8393 39.2134 61.7964 39.0461C61.7533 38.8777 61.6772 38.7196 61.5725 38.5809C61.4679 38.4421 61.3368 38.3255 61.1868 38.2378L58.6264 36.7386C58.4286 36.6244 58.2045 36.5637 57.9762 36.5625C57.7566 36.5628 57.5407 36.6189 57.3488 36.7256C57.1568 36.8322 56.9952 36.9858 56.8789 37.1721C53.0406 43.354 43.0384 47.5084 31.9977 47.5084C24.8676 47.5084 18.1664 45.8466 13.1315 42.8257C8.24555 39.895 5.55874 36.0522 5.55874 32.0197C5.55874 27.9873 8.26812 24.1445 13.1315 21.2138C18.1664 18.1974 24.8721 16.5357 31.9977 16.5357C41.3451 16.5357 49.8435 19.4076 54.7339 24.2122C55.5398 24.9957 56.2521 25.87 56.8563 26.8177C57.0362 27.1019 57.3192 27.3054 57.6459 27.3854C57.9726 27.4654 58.3175 27.4157 58.6084 27.2467L61.1642 25.7385C61.4634 25.5561 61.6803 25.2647 61.7693 24.9257C61.8101 24.7586 61.8172 24.5851 61.79 24.4153C61.7629 24.2455 61.7021 24.0828 61.6112 23.9368C60.7695 22.5931 59.7706 21.3546 58.6355 20.2475C52.729 14.4359 42.7675 10.9634 31.9932 10.9634L31.9977 10.9769Z" fill="#1E3427"/>
<path d="M32.0072 52.1195C14.8478 52.1195 0.930664 43.0883 0.930664 31.9979C0.930664 20.9075 14.8704 11.9033 32.0072 11.9033C42.5422 11.9033 52.2553 15.2765 57.9947 20.9346C59.1676 22.0776 60.1876 23.3678 61.0292 24.7729L57.8366 26.6514C57.1576 25.5244 56.3366 24.4893 55.3937 23.5717C50.3317 18.6045 41.5894 15.6197 32.0072 15.6197C16.916 15.6197 4.63801 22.9802 4.63801 32.0295C4.63801 41.0788 16.916 48.4438 32.0072 48.4438C43.5943 48.4438 53.9848 43.9914 57.8592 37.367L61.0608 39.2409C56.4729 47.0485 45.0664 52.1195 32.0072 52.1195Z" fill="#E4DEE6"/>
<path d="M60.9838 30.1464H23.7389V33.8537H47.9156C47.3421 48.0825 40.239 59.367 31.542 59.367C22.5107 59.367 15.1321 47.0891 15.1321 31.9978C15.1321 16.9066 22.4926 4.6286 31.542 4.6286C39.2185 4.6286 45.992 13.7637 47.5995 26.3443L51.2752 25.8927C49.4283 11.4427 41.1286 0.943848 31.542 0.943848C20.4516 0.943848 11.4248 14.8836 11.4248 32.0159C11.4248 49.1482 20.4561 63.0924 31.542 63.0924C42.235 63.0924 50.9998 50.1461 51.6229 33.8718H60.9838V30.1464Z" fill="#E4DEE6"/>
<path d="M32.0072 52.1195C14.8478 52.1195 0.930664 43.0883 0.930664 31.9979C0.930664 20.9075 14.8704 11.9033 32.0072 11.9033C42.5422 11.9033 52.2553 15.2765 57.9947 20.9346C59.1676 22.0776 60.1876 23.3678 61.0292 24.7729L57.8366 26.6514C57.1576 25.5244 56.3366 24.4893 55.3937 23.5717C50.3317 18.6045 41.5894 15.6197 32.0072 15.6197C16.916 15.6197 4.63801 22.9802 4.63801 32.0295C4.63801 41.0788 16.916 48.4438 32.0072 48.4438C43.5943 48.4438 53.9848 43.9914 57.8592 37.367L61.0608 39.2409C56.4729 47.0485 45.0664 52.1195 32.0072 52.1195Z" fill="#E4DEE6"/>
<path d="M60.9838 30.1464H23.7389V33.8537H47.9156C47.3421 48.0825 40.239 59.367 31.542 59.367C22.5107 59.367 15.1321 47.0891 15.1321 31.9978C15.1321 16.9066 22.4926 4.6286 31.542 4.6286C39.2185 4.6286 45.992 13.7637 47.5995 26.3443L51.2752 25.8927C49.4283 11.4427 41.1286 0.943848 31.542 0.943848C20.4516 0.943848 11.4248 14.8836 11.4248 32.0159C11.4248 49.1482 20.4561 63.0924 31.542 63.0924C42.235 63.0924 50.9998 50.1461 51.6229 33.8718H60.9838V30.1464Z" fill="#E4DEE6"/>
<path d="M60.6041 30.1459H24.1043C24.0557 30.1459 24.0075 30.1555 23.9626 30.1741C23.9177 30.1927 23.8769 30.22 23.8425 30.2544C23.8081 30.2888 23.7808 30.3296 23.7622 30.3745C23.7436 30.4194 23.734 30.4676 23.734 30.5162V33.4785C23.7334 33.5275 23.7426 33.5761 23.7609 33.6215C23.7793 33.667 23.8064 33.7083 23.8409 33.7432C23.8753 33.7781 23.9163 33.8057 23.9616 33.8246C24.0068 33.8435 24.0553 33.8533 24.1043 33.8532H47.5133C47.5643 33.8525 47.6149 33.8624 47.6619 33.8821C47.7089 33.9018 47.7513 33.931 47.7864 33.9679C47.8216 34.0048 47.8488 34.0485 47.8663 34.0964C47.8838 34.1443 47.8912 34.1952 47.8881 34.2461C47.2017 48.2897 40.1303 59.3666 31.537 59.3666C22.5058 59.3666 15.1227 47.0886 15.1227 31.9973C15.1227 16.9061 22.4877 4.62811 31.537 4.62811C39.1549 4.62811 45.8516 13.5871 47.5449 25.9825C47.5511 26.0303 47.5666 26.0764 47.5906 26.1182C47.6146 26.1599 47.6465 26.1966 47.6847 26.2259C47.7229 26.2553 47.7665 26.2769 47.813 26.2893C47.8596 26.3018 47.9081 26.3049 47.9559 26.2986L50.8955 25.9238C50.9943 25.9092 51.0835 25.8567 51.1442 25.7775C51.2049 25.6983 51.2323 25.5985 51.2206 25.4993C49.2744 11.2345 41.0379 0.925293 31.537 0.925293C20.4421 0.925293 11.4199 14.865 11.4199 31.9973C11.4199 49.1296 20.4512 63.0739 31.537 63.0739C42.1488 63.0739 50.8684 50.3127 51.6 34.2055C51.6035 34.1108 51.6436 34.0212 51.7118 33.9556C51.78 33.8899 51.871 33.8532 51.9657 33.8532H60.6041C60.6531 33.8533 60.7017 33.8435 60.7469 33.8246C60.7921 33.8057 60.8331 33.7781 60.8676 33.7432C60.902 33.7083 60.9292 33.667 60.9475 33.6215C60.9659 33.5761 60.975 33.5275 60.9744 33.4785V30.5162C60.9744 30.418 60.9354 30.3238 60.866 30.2544C60.7965 30.1849 60.7023 30.1459 60.6041 30.1459Z" fill="#E4DEE6"/>
<path d="M31.537 0.925336C41.0198 0.925336 49.2744 11.2345 51.2206 25.4994C51.2322 25.5985 51.2048 25.6983 51.1441 25.7775C51.0834 25.8568 50.9942 25.9093 50.8955 25.9238L47.9558 26.2987H47.9061C47.8175 26.2973 47.7323 26.2642 47.666 26.2054C47.5997 26.1465 47.5568 26.0659 47.5449 25.978C45.8515 13.5826 39.1549 4.62816 31.537 4.62816C22.5057 4.62816 15.1227 16.9016 15.1227 31.9929C15.1227 47.0841 22.4877 59.3621 31.537 59.3621C40.1167 59.3621 47.2017 48.2852 47.8881 34.2416C47.8912 34.1908 47.8838 34.1398 47.8663 34.0919C47.8488 34.0441 47.8216 34.0003 47.7864 33.9634C47.7512 33.9265 47.7088 33.8973 47.6618 33.8776C47.6148 33.8579 47.5642 33.8481 47.5133 33.8488H24.1043C24.0552 33.8488 24.0067 33.8391 23.9615 33.8202C23.9163 33.8013 23.8753 33.7736 23.8408 33.7387C23.8064 33.7039 23.7792 33.6625 23.7609 33.6171C23.7425 33.5716 23.7334 33.523 23.734 33.474V30.5117C23.734 30.4631 23.7436 30.415 23.7622 30.37C23.7808 30.3251 23.808 30.2843 23.8424 30.2499C23.8768 30.2155 23.9176 30.1882 23.9626 30.1696C24.0075 30.151 24.0556 30.1415 24.1043 30.1415H60.6041C60.7023 30.1415 60.7965 30.1805 60.8659 30.2499C60.9354 30.3193 60.9744 30.4135 60.9744 30.5117V33.474C60.975 33.523 60.9658 33.5716 60.9475 33.6171C60.9292 33.6625 60.902 33.7039 60.8675 33.7387C60.8331 33.7736 60.792 33.8013 60.7468 33.8202C60.7016 33.8391 60.6531 33.8488 60.6041 33.8488H51.9657C51.871 33.8487 51.78 33.8854 51.7117 33.9511C51.6435 34.0168 51.6034 34.1064 51.5999 34.201C50.8684 50.3083 42.1487 63.0694 31.537 63.0694C20.4421 63.0694 11.4199 49.1297 11.4199 31.9929C11.4199 14.856 20.4511 0.920816 31.537 0.920816V0.925336ZM31.537 -0.00488281C19.9318 -0.00488281 10.4941 14.3503 10.4941 31.9929C10.4941 49.6354 19.9318 63.9951 31.537 63.9951C36.9557 63.9951 42.1171 60.8703 46.0367 55.2032C49.7711 49.7844 52.0605 42.5594 52.4985 34.7745H60.6267C60.9716 34.7745 61.3024 34.6375 61.5463 34.3936C61.7902 34.1497 61.9272 33.8189 61.9272 33.474V30.5117C61.926 30.1676 61.7884 29.838 61.5447 29.5951C61.3009 29.3521 60.9708 29.2157 60.6267 29.2157H24.1043C23.7601 29.2157 23.43 29.3521 23.1862 29.5951C22.9425 29.838 22.8049 30.1676 22.8037 30.5117V33.474C22.8037 33.8189 22.9408 34.1497 23.1847 34.3936C23.4286 34.6375 23.7593 34.7745 24.1043 34.7745H46.9308C46.1044 48.0866 39.4077 58.4364 31.537 58.4364C27.5 58.4364 23.6617 55.727 20.7311 50.8591C17.7147 45.8287 16.0529 39.1185 16.0529 31.9929C16.0529 24.8672 17.7147 18.1615 20.7311 13.1266C23.6617 8.24065 27.5045 5.55385 31.537 5.55385C38.6536 5.55385 45.0026 14.1968 46.6282 26.1045C46.6706 26.4138 46.8232 26.6973 47.058 26.9031C47.2928 27.1088 47.594 27.2229 47.9061 27.2244H48.0732L51.0129 26.8496C51.1832 26.8273 51.3475 26.7717 51.4962 26.6858C51.645 26.5999 51.7753 26.4856 51.8798 26.3492C51.9842 26.2129 52.0608 26.0572 52.105 25.8913C52.1491 25.7253 52.1601 25.5522 52.1373 25.382C51.1755 18.315 48.6151 11.8938 44.9123 7.29237C41.1508 2.59612 36.3958 0.00866352 31.5144 0.00866352L31.537 -0.00488281Z" fill="#1E3427"/>
<path d="M31.9978 52.1145C14.8655 52.1145 0.925781 43.0832 0.925781 31.9974C0.925781 20.9115 14.8655 11.9028 31.9978 11.9028C42.5328 11.9028 52.2459 15.276 57.9853 20.9341C59.0679 21.9901 60.0214 23.1709 60.8256 24.4518C60.8508 24.4948 60.8673 24.5423 60.8742 24.5917C60.881 24.641 60.8781 24.6913 60.8655 24.7395C60.8529 24.7877 60.8309 24.833 60.8008 24.8727C60.7708 24.9125 60.7331 24.9459 60.6901 24.9711L58.1388 26.4748C58.0565 26.5234 57.9584 26.5378 57.8656 26.5151C57.7727 26.4923 57.6925 26.434 57.6421 26.3528C57.0007 25.342 56.2429 24.41 55.3843 23.5757C50.3268 18.6085 41.58 15.6237 31.9978 15.6237C16.9066 15.6237 4.63312 22.9842 4.63312 32.0335C4.63312 41.0828 16.9066 48.4478 31.9978 48.4478C43.4088 48.4478 53.6729 44.1309 57.6692 37.678C57.718 37.5964 57.7971 37.5373 57.8893 37.5136C57.9814 37.49 58.0792 37.5036 58.1614 37.5516L60.7217 39.0508C60.7648 39.0759 60.8025 39.1094 60.8325 39.1493C60.8624 39.1891 60.8842 39.2346 60.8964 39.2829C60.9085 39.3313 60.911 39.3816 60.9035 39.4309C60.896 39.4802 60.8787 39.5275 60.8527 39.5701C56.1429 47.188 44.8764 52.1145 31.9978 52.1145Z" fill="#E4DEE6"/>
<path d="M31.9977 11.9026C42.5327 11.9026 52.2458 15.2758 57.9852 20.9339C59.0678 21.9899 60.0213 23.1707 60.8255 24.4516C60.8757 24.5381 60.89 24.6408 60.8656 24.7378C60.8411 24.8348 60.7798 24.9184 60.6946 24.9709L58.1387 26.4746C58.0829 26.5081 58.0187 26.5253 57.9536 26.5242C57.8913 26.5245 57.8301 26.5089 57.7755 26.4789C57.721 26.4488 57.6751 26.4054 57.642 26.3526C57.0006 25.3418 56.2428 24.4098 55.3842 23.5755C50.3267 18.6083 41.5799 15.6235 31.9977 15.6235C16.9065 15.6235 4.63304 22.984 4.63304 32.0333C4.63304 41.0826 16.9065 48.4476 31.9977 48.4476C43.4087 48.4476 53.6728 44.1307 57.6691 37.6778C57.7005 37.6243 57.7454 37.5799 57.7992 37.549C57.8531 37.5181 57.9141 37.5018 57.9762 37.5017C58.041 37.5027 58.1046 37.5198 58.1613 37.5514L60.7217 39.0506C60.7648 39.0757 60.8024 39.1092 60.8324 39.149C60.8624 39.1889 60.8841 39.2343 60.8963 39.2827C60.9085 39.3311 60.9109 39.3814 60.9034 39.4307C60.8959 39.48 60.8786 39.5273 60.8526 39.5699C56.1428 47.2239 44.8763 52.1504 31.9977 52.1504C14.8654 52.1504 0.925698 43.1192 0.925698 32.0333C0.925698 20.9474 14.8654 11.9026 31.9977 11.9026ZM31.9977 10.9769C14.3552 10.9769 0 20.4146 0 32.0197C0 43.6249 14.3552 53.0671 31.9977 53.0671C45.1382 53.0671 56.775 47.9554 61.6428 40.0395C61.7343 39.8929 61.795 39.7293 61.8214 39.5585C61.8478 39.3878 61.8393 39.2134 61.7964 39.0461C61.7533 38.8777 61.6772 38.7196 61.5725 38.5809C61.4679 38.4421 61.3368 38.3255 61.1868 38.2378L58.6264 36.7386C58.4286 36.6244 58.2045 36.5637 57.9762 36.5625C57.7566 36.5628 57.5407 36.6189 57.3488 36.7256C57.1568 36.8322 56.9952 36.9858 56.8789 37.1721C53.0406 43.354 43.0384 47.5084 31.9977 47.5084C24.8676 47.5084 18.1664 45.8466 13.1315 42.8257C8.24555 39.895 5.55874 36.0522 5.55874 32.0197C5.55874 27.9873 8.26812 24.1445 13.1315 21.2138C18.1664 18.1974 24.8721 16.5357 31.9977 16.5357C41.3451 16.5357 49.8435 19.4076 54.7339 24.2122C55.5398 24.9957 56.2521 25.87 56.8563 26.8177C57.0362 27.1019 57.3192 27.3054 57.6459 27.3854C57.9726 27.4654 58.3175 27.4157 58.6084 27.2467L61.1642 25.7385C61.4634 25.5561 61.6803 25.2647 61.7693 24.9257C61.8101 24.7586 61.8172 24.5851 61.79 24.4153C61.7629 24.2455 61.7021 24.0828 61.6112 23.9368C60.7695 22.5931 59.7706 21.3546 58.6355 20.2475C52.729 14.4359 42.7675 10.9634 31.9932 10.9634L31.9977 10.9769Z" fill="#1E3427"/>
<path d="M32.0072 52.1195C14.8478 52.1195 0.930664 43.0883 0.930664 31.9979C0.930664 20.9075 14.8704 11.9033 32.0072 11.9033C42.5422 11.9033 52.2553 15.2765 57.9947 20.9346C59.1676 22.0776 60.1876 23.3678 61.0292 24.7729L57.8366 26.6514C57.1576 25.5244 56.3366 24.4893 55.3937 23.5717C50.3317 18.6045 41.5894 15.6197 32.0072 15.6197C16.916 15.6197 4.63801 22.9802 4.63801 32.0295C4.63801 41.0788 16.916 48.4438 32.0072 48.4438C43.5943 48.4438 53.9848 43.9914 57.8592 37.367L61.0608 39.2409C56.4729 47.0485 45.0664 52.1195 32.0072 52.1195Z" fill="#E4DEE6"/>
<path d="M60.9838 30.1464H23.7389V33.8537H47.9156C47.3421 48.0825 40.239 59.367 31.542 59.367C22.5107 59.367 15.1321 47.0891 15.1321 31.9978C15.1321 16.9066 22.4926 4.6286 31.542 4.6286C39.2185 4.6286 45.992 13.7637 47.5995 26.3443L51.2752 25.8927C49.4283 11.4427 41.1286 0.943848 31.542 0.943848C20.4516 0.943848 11.4248 14.8836 11.4248 32.0159C11.4248 49.1482 20.4561 63.0924 31.542 63.0924C42.235 63.0924 50.9998 50.1461 51.6229 33.8718H60.9838V30.1464Z" fill="#E4DEE6"/>
<path d="M32.0072 52.1195C14.8478 52.1195 0.930664 43.0883 0.930664 31.9979C0.930664 20.9075 14.8704 11.9033 32.0072 11.9033C42.5422 11.9033 52.2553 15.2765 57.9947 20.9346C59.1676 22.0776 60.1876 23.3678 61.0292 24.7729L57.8366 26.6514C57.1576 25.5244 56.3366 24.4893 55.3937 23.5717C50.3317 18.6045 41.5894 15.6197 32.0072 15.6197C16.916 15.6197 4.63801 22.9802 4.63801 32.0295C4.63801 41.0788 16.916 48.4438 32.0072 48.4438C43.5943 48.4438 53.9848 43.9914 57.8592 37.367L61.0608 39.2409C56.4729 47.0485 45.0664 52.1195 32.0072 52.1195Z" fill="#E4DEE6"/>
<path d="M60.9838 30.1464H23.7389V33.8537H47.9156C47.3421 48.0825 40.239 59.367 31.542 59.367C22.5107 59.367 15.1321 47.0891 15.1321 31.9978C15.1321 16.9066 22.4926 4.6286 31.542 4.6286C39.2185 4.6286 45.992 13.7637 47.5995 26.3443L51.2752 25.8927C49.4283 11.4427 41.1286 0.943848 31.542 0.943848C20.4516 0.943848 11.4248 14.8836 11.4248 32.0159C11.4248 49.1482 20.4561 63.0924 31.542 63.0924C42.235 63.0924 50.9998 50.1461 51.6229 33.8718H60.9838V30.1464Z" fill="#E4DEE6"/>
</g>
<defs>
<clipPath id="clip0_118_1432">
<rect width="61.9047" height="64" fill="white"/>
</clipPath>
</defs>
</svg>
