<svg width="62" height="64" viewBox="0 0 62 64" fill="none" xmlns="http://www.w3.org/2000/svg">
<g clip-path="url(#clip0_961_1194)">
<path d="M31.9978 52.115C14.8655 52.115 0.925781 43.0837 0.925781 31.9979C0.925781 20.912 14.8655 11.9033 31.9978 11.9033C42.5328 11.9033 52.2459 15.2765 57.9853 20.9346C59.0679 21.9906 60.0214 23.1714 60.8256 24.4523C60.8508 24.4952 60.8673 24.5428 60.8742 24.5921C60.881 24.6415 60.8781 24.6918 60.8655 24.74C60.8529 24.7882 60.8309 24.8335 60.8008 24.8732C60.7708 24.9129 60.7331 24.9464 60.6901 24.9715L58.1388 26.4752C58.0565 26.5239 57.9584 26.5383 57.8656 26.5155C57.7727 26.4928 57.6925 26.4345 57.6421 26.3533C57.0007 25.3425 56.2429 24.4105 55.3843 23.5762C50.3268 18.609 41.58 15.6242 31.9978 15.6242C16.9066 15.6242 4.63312 22.9847 4.63312 32.034C4.63312 41.0833 16.9066 48.4483 31.9978 48.4483C43.4088 48.4483 53.6729 44.1314 57.6692 37.6785C57.718 37.5969 57.7971 37.5378 57.8893 37.5141C57.9814 37.4905 58.0792 37.5041 58.1614 37.5521L60.7217 39.0513C60.7648 39.0764 60.8025 39.1099 60.8325 39.1497C60.8624 39.1896 60.8842 39.235 60.8964 39.2834C60.9085 39.3318 60.911 39.3821 60.9035 39.4314C60.896 39.4807 60.8787 39.528 60.8527 39.5706C56.1429 47.1884 44.8764 52.115 31.9978 52.115Z" fill="#233328"/>
<path d="M31.9977 11.9034C42.5327 11.9034 52.2458 15.2765 57.9852 20.9346C59.0678 21.9906 60.0213 23.1715 60.8255 24.4523C60.8757 24.5388 60.89 24.6416 60.8656 24.7386C60.8411 24.8355 60.7798 24.9192 60.6946 24.9716L58.1387 26.4753C58.0829 26.5089 58.0187 26.5261 57.9536 26.525C57.8913 26.5252 57.8301 26.5096 57.7755 26.4796C57.721 26.4496 57.6751 26.4061 57.642 26.3534C57.0006 25.3426 56.2428 24.4105 55.3842 23.5763C50.3267 18.6091 41.5799 15.6242 31.9977 15.6242C16.9065 15.6242 4.63304 22.9847 4.63304 32.034C4.63304 41.0833 16.9065 48.4483 31.9977 48.4483C43.4087 48.4483 53.6728 44.1314 57.6691 37.6786C57.7005 37.625 57.7454 37.5806 57.7992 37.5497C57.8531 37.5188 57.9141 37.5026 57.9762 37.5025C58.041 37.5035 58.1046 37.5205 58.1613 37.5521L60.7217 39.0513C60.7648 39.0764 60.8024 39.1099 60.8324 39.1498C60.8624 39.1896 60.8841 39.2351 60.8963 39.2834C60.9085 39.3318 60.9109 39.3821 60.9034 39.4314C60.8959 39.4807 60.8786 39.528 60.8526 39.5706C56.1428 47.2246 44.8763 52.1511 31.9977 52.1511C14.8654 52.1511 0.925698 43.1199 0.925698 32.034C0.925698 20.9482 14.8654 11.9034 31.9977 11.9034ZM31.9977 10.9777C14.3552 10.9777 0 20.4153 0 32.0205C0 43.6256 14.3552 53.0678 31.9977 53.0678C45.1382 53.0678 56.775 47.9561 61.6428 40.0402C61.7343 39.8936 61.795 39.73 61.8214 39.5592C61.8478 39.3885 61.8393 39.2142 61.7964 39.0468C61.7533 38.8784 61.6772 38.7203 61.5725 38.5816C61.4679 38.4428 61.3368 38.3262 61.1868 38.2385L58.6264 36.7393C58.4286 36.6251 58.2045 36.5644 57.9762 36.5632C57.7566 36.5635 57.5407 36.6197 57.3488 36.7263C57.1568 36.8329 56.9952 36.9866 56.8789 37.1728C53.0406 43.3547 43.0384 47.5091 31.9977 47.5091C24.8676 47.5091 18.1664 45.8473 13.1315 42.8264C8.24555 39.8957 5.55874 36.0529 5.55874 32.0205C5.55874 27.988 8.26812 24.1452 13.1315 21.2146C18.1664 18.1981 24.8721 16.5364 31.9977 16.5364C41.3451 16.5364 49.8435 19.4083 54.7339 24.213C55.5398 24.9964 56.2521 25.8708 56.8563 26.8185C57.0362 27.1027 57.3192 27.3061 57.6459 27.3861C57.9726 27.4661 58.3175 27.4164 58.6084 27.2475L61.1642 25.7392C61.4634 25.5568 61.6803 25.2654 61.7693 24.9264C61.8101 24.7594 61.8172 24.5858 61.79 24.416C61.7629 24.2462 61.7021 24.0835 61.6112 23.9375C60.7695 22.5938 59.7706 21.3553 58.6355 20.2482C52.729 14.4366 42.7675 10.9641 31.9932 10.9641L31.9977 10.9777Z" fill="white"/>
<path d="M60.6041 30.1464H24.1043C24.0557 30.1464 24.0075 30.156 23.9626 30.1746C23.9177 30.1932 23.8769 30.2205 23.8425 30.2549C23.8081 30.2892 23.7808 30.3301 23.7622 30.375C23.7436 30.4199 23.734 30.4681 23.734 30.5167V33.4789C23.7334 33.528 23.7426 33.5766 23.7609 33.622C23.7793 33.6675 23.8064 33.7088 23.8409 33.7437C23.8753 33.7786 23.9163 33.8062 23.9616 33.8251C24.0068 33.844 24.0553 33.8537 24.1043 33.8537H47.5133C47.5643 33.853 47.6149 33.8628 47.6619 33.8826C47.7089 33.9023 47.7513 33.9315 47.7864 33.9684C47.8216 34.0053 47.8488 34.049 47.8663 34.0969C47.8838 34.1448 47.8912 34.1957 47.8881 34.2466C47.2017 48.2902 40.1303 59.367 31.537 59.367C22.5058 59.367 15.1227 47.0891 15.1227 31.9978C15.1227 16.9066 22.4877 4.6286 31.537 4.6286C39.1549 4.6286 45.8516 13.5876 47.5449 25.983C47.5511 26.0308 47.5666 26.0769 47.5906 26.1187C47.6146 26.1604 47.6465 26.1971 47.6847 26.2264C47.7229 26.2558 47.7665 26.2773 47.813 26.2898C47.8596 26.3023 47.9081 26.3054 47.9559 26.2991L50.8955 25.9243C50.9943 25.9097 51.0835 25.8572 51.1442 25.778C51.2049 25.6987 51.2323 25.599 51.2206 25.4998C49.2744 11.235 41.0379 0.925781 31.537 0.925781C20.4421 0.925781 11.4199 14.8655 11.4199 31.9978C11.4199 49.1301 20.4512 63.0744 31.537 63.0744C42.1488 63.0744 50.8684 50.3132 51.6 34.206C51.6035 34.1113 51.6436 34.0217 51.7118 33.956C51.78 33.8904 51.871 33.8537 51.9657 33.8537H60.6041C60.6531 33.8537 60.7017 33.844 60.7469 33.8251C60.7921 33.8062 60.8331 33.7786 60.8676 33.7437C60.902 33.7088 60.9292 33.6675 60.9475 33.622C60.9659 33.5766 60.975 33.528 60.9744 33.4789V30.5167C60.9744 30.4185 60.9354 30.3243 60.866 30.2549C60.7965 30.1854 60.7023 30.1464 60.6041 30.1464Z" fill="#233328"/>
<path d="M31.537 0.92558C41.0198 0.92558 49.2744 11.2348 51.2206 25.4996C51.2322 25.5988 51.2048 25.6985 51.1441 25.7778C51.0834 25.857 50.9942 25.9095 50.8955 25.9241L47.9558 26.2989H47.9061C47.8175 26.2975 47.7323 26.2644 47.666 26.2056C47.5997 26.1468 47.5568 26.0661 47.5449 25.9783C45.8515 13.5829 39.1549 4.6284 31.537 4.6284C22.5057 4.6284 15.1227 16.9019 15.1227 31.9931C15.1227 47.0843 22.4877 59.3623 31.537 59.3623C40.1167 59.3623 47.2017 48.2855 47.8881 34.2419C47.8912 34.191 47.8838 34.14 47.8663 34.0922C47.8488 34.0443 47.8216 34.0005 47.7864 33.9637C47.7512 33.9268 47.7088 33.8976 47.6618 33.8778C47.6148 33.8581 47.5642 33.8483 47.5133 33.849H24.1043C24.0552 33.849 24.0067 33.8393 23.9615 33.8204C23.9163 33.8015 23.8753 33.7738 23.8408 33.739C23.8064 33.7041 23.7792 33.6628 23.7609 33.6173C23.7425 33.5719 23.7334 33.5232 23.734 33.4742V30.512C23.734 30.4633 23.7436 30.4152 23.7622 30.3703C23.7808 30.3254 23.808 30.2845 23.8424 30.2501C23.8768 30.2158 23.9176 30.1885 23.9626 30.1699C24.0075 30.1513 24.0556 30.1417 24.1043 30.1417H60.6041C60.7023 30.1417 60.7965 30.1807 60.8659 30.2501C60.9354 30.3196 60.9744 30.4138 60.9744 30.512V33.4742C60.975 33.5232 60.9658 33.5719 60.9475 33.6173C60.9292 33.6628 60.902 33.7041 60.8675 33.739C60.8331 33.7738 60.792 33.8015 60.7468 33.8204C60.7016 33.8393 60.6531 33.849 60.6041 33.849H51.9657C51.871 33.849 51.78 33.8856 51.7117 33.9513C51.6435 34.017 51.6034 34.1066 51.5999 34.2012C50.8684 50.3085 42.1487 63.0697 31.537 63.0697C20.4421 63.0697 11.4199 49.1299 11.4199 31.9931C11.4199 14.8563 20.4511 0.92106 31.537 0.92106V0.92558ZM31.537 -0.00463867C19.9318 -0.00463867 10.4941 14.3505 10.4941 31.9931C10.4941 49.6357 19.9318 63.9954 31.537 63.9954C36.9557 63.9954 42.1171 60.8706 46.0367 55.2034C49.7711 49.7847 52.0605 42.5597 52.4985 34.7747H60.6267C60.9716 34.7747 61.3024 34.6377 61.5463 34.3938C61.7902 34.1499 61.9272 33.8191 61.9272 33.4742V30.512C61.926 30.1678 61.7884 29.8382 61.5447 29.5953C61.3009 29.3524 60.9708 29.216 60.6267 29.216H24.1043C23.7601 29.216 23.43 29.3524 23.1862 29.5953C22.9425 29.8382 22.8049 30.1678 22.8037 30.512V33.4742C22.8037 33.8191 22.9408 34.1499 23.1847 34.3938C23.4286 34.6377 23.7593 34.7747 24.1043 34.7747H46.9308C46.1044 48.0868 39.4077 58.4366 31.537 58.4366C27.5 58.4366 23.6617 55.7272 20.7311 50.8594C17.7147 45.829 16.0529 39.1188 16.0529 31.9931C16.0529 24.8674 17.7147 18.1617 20.7311 13.1268C23.6617 8.24089 27.5045 5.5541 31.537 5.5541C38.6536 5.5541 45.0026 14.197 46.6282 26.1047C46.6706 26.414 46.8232 26.6976 47.058 26.9033C47.2928 27.1091 47.594 27.2231 47.9061 27.2246H48.0732L51.0129 26.8498C51.1832 26.8276 51.3475 26.7719 51.4962 26.6861C51.645 26.6002 51.7753 26.4858 51.8798 26.3495C51.9842 26.2131 52.0608 26.0575 52.105 25.8915C52.1491 25.7255 52.1601 25.5525 52.1373 25.3822C51.1755 18.3153 48.6151 11.894 44.9123 7.29262C41.1508 2.59637 36.3958 0.00890766 31.5144 0.00890766L31.537 -0.00463867Z" fill="white"/>
<path d="M60.6041 30.1462H24.1043C24.0557 30.1462 24.0075 30.1558 23.9626 30.1744C23.9177 30.193 23.8769 30.2202 23.8425 30.2546C23.8081 30.289 23.7808 30.3298 23.7622 30.3747C23.7436 30.4197 23.734 30.4678 23.734 30.5165V33.4787C23.7334 33.5277 23.7426 33.5763 23.7609 33.6218C23.7793 33.6672 23.8064 33.7086 23.8409 33.7435C23.8753 33.7783 23.9163 33.806 23.9616 33.8249C24.0068 33.8438 24.0553 33.8535 24.1043 33.8535H47.5133C47.5643 33.8528 47.6149 33.8626 47.6619 33.8823C47.7089 33.9021 47.7513 33.9313 47.7864 33.9681C47.8216 34.005 47.8488 34.0488 47.8663 34.0966C47.8838 34.1445 47.8912 34.1955 47.8881 34.2464C47.2017 48.29 40.1303 59.3668 31.537 59.3668C22.5058 59.3668 15.1227 47.0888 15.1227 31.9976C15.1227 16.9063 22.4877 4.62836 31.537 4.62836C39.1549 4.62836 45.8516 13.5874 47.5449 25.9828C47.5511 26.0305 47.5666 26.0766 47.5906 26.1184C47.6146 26.1602 47.6465 26.1968 47.6847 26.2262C47.7229 26.2555 47.7665 26.2771 47.813 26.2896C47.8596 26.302 47.9081 26.3052 47.9559 26.2989L50.8955 25.924C50.9943 25.9095 51.0835 25.857 51.1442 25.7777C51.2049 25.6985 51.2323 25.5987 51.2206 25.4996C49.2744 11.2347 41.0379 0.925537 31.537 0.925537C20.4421 0.925537 11.4199 14.8653 11.4199 31.9976C11.4199 49.1299 20.4512 63.0741 31.537 63.0741C42.1488 63.0741 50.8684 50.313 51.6 34.2057C51.6035 34.1111 51.6436 34.0215 51.7118 33.9558C51.78 33.8901 51.871 33.8534 51.9657 33.8535H60.6041C60.6531 33.8535 60.7017 33.8438 60.7469 33.8249C60.7921 33.806 60.8331 33.7783 60.8676 33.7435C60.902 33.7086 60.9292 33.6672 60.9475 33.6218C60.9659 33.5763 60.975 33.5277 60.9744 33.4787V30.5165C60.9744 30.4182 60.9354 30.3241 60.866 30.2546C60.7965 30.1852 60.7023 30.1462 60.6041 30.1462Z" fill="#233328"/>
<path d="M31.537 0.92558C41.0198 0.92558 49.2744 11.2348 51.2206 25.4996C51.2322 25.5988 51.2048 25.6985 51.1441 25.7778C51.0834 25.857 50.9942 25.9095 50.8955 25.9241L47.9558 26.2989H47.9061C47.8175 26.2975 47.7323 26.2644 47.666 26.2056C47.5997 26.1468 47.5568 26.0661 47.5449 25.9783C45.8515 13.5829 39.1549 4.6284 31.537 4.6284C22.5057 4.6284 15.1227 16.9019 15.1227 31.9931C15.1227 47.0843 22.4877 59.3623 31.537 59.3623C40.1167 59.3623 47.2017 48.2855 47.8881 34.2419C47.8912 34.191 47.8838 34.14 47.8663 34.0922C47.8488 34.0443 47.8216 34.0005 47.7864 33.9637C47.7512 33.9268 47.7088 33.8976 47.6618 33.8778C47.6148 33.8581 47.5642 33.8483 47.5133 33.849H24.1043C24.0552 33.849 24.0067 33.8393 23.9615 33.8204C23.9163 33.8015 23.8753 33.7738 23.8408 33.739C23.8064 33.7041 23.7792 33.6628 23.7609 33.6173C23.7425 33.5719 23.7334 33.5232 23.734 33.4742V30.512C23.734 30.4633 23.7436 30.4152 23.7622 30.3703C23.7808 30.3254 23.808 30.2845 23.8424 30.2501C23.8768 30.2158 23.9176 30.1885 23.9626 30.1699C24.0075 30.1513 24.0556 30.1417 24.1043 30.1417H60.6041C60.7023 30.1417 60.7965 30.1807 60.8659 30.2501C60.9354 30.3196 60.9744 30.4138 60.9744 30.512V33.4742C60.975 33.5232 60.9658 33.5719 60.9475 33.6173C60.9292 33.6628 60.902 33.7041 60.8675 33.739C60.8331 33.7738 60.792 33.8015 60.7468 33.8204C60.7016 33.8393 60.6531 33.849 60.6041 33.849H51.9657C51.871 33.849 51.78 33.8856 51.7117 33.9513C51.6435 34.017 51.6034 34.1066 51.5999 34.2012C50.8684 50.3085 42.1487 63.0697 31.537 63.0697C20.4421 63.0697 11.4199 49.1299 11.4199 31.9931C11.4199 14.8563 20.4511 0.92106 31.537 0.92106V0.92558ZM31.537 -0.00463867C19.9318 -0.00463867 10.4941 14.3505 10.4941 31.9931C10.4941 49.6357 19.9318 63.9954 31.537 63.9954C36.9557 63.9954 42.1171 60.8706 46.0367 55.2034C49.7711 49.7847 52.0605 42.5597 52.4985 34.7747H60.6267C60.9716 34.7747 61.3024 34.6377 61.5463 34.3938C61.7902 34.1499 61.9272 33.8191 61.9272 33.4742V30.512C61.926 30.1678 61.7884 29.8382 61.5447 29.5953C61.3009 29.3524 60.9708 29.216 60.6267 29.216H24.1043C23.7601 29.216 23.43 29.3524 23.1862 29.5953C22.9425 29.8382 22.8049 30.1678 22.8037 30.512V33.4742C22.8037 33.8191 22.9408 34.1499 23.1847 34.3938C23.4286 34.6377 23.7593 34.7747 24.1043 34.7747H46.9308C46.1044 48.0868 39.4077 58.4366 31.537 58.4366C27.5 58.4366 23.6617 55.7272 20.7311 50.8594C17.7147 45.829 16.0529 39.1188 16.0529 31.9931C16.0529 24.8674 17.7147 18.1617 20.7311 13.1268C23.6617 8.24089 27.5045 5.5541 31.537 5.5541C38.6536 5.5541 45.0026 14.197 46.6282 26.1047C46.6706 26.414 46.8232 26.6976 47.058 26.9033C47.2928 27.1091 47.594 27.2231 47.9061 27.2246H48.0732L51.0129 26.8498C51.1832 26.8276 51.3475 26.7719 51.4962 26.6861C51.645 26.6002 51.7753 26.4858 51.8798 26.3495C51.9842 26.2131 52.0608 26.0575 52.105 25.8915C52.1491 25.7255 52.1601 25.5525 52.1373 25.3822C51.1755 18.3153 48.6151 11.894 44.9123 7.29262C41.1508 2.59637 36.3958 0.00890766 31.5144 0.00890766L31.537 -0.00463867Z" fill="white"/>
<path d="M31.9978 52.1147C14.8655 52.1147 0.925781 43.0835 0.925781 31.9976C0.925781 20.9118 14.8655 11.9031 31.9978 11.9031C42.5328 11.9031 52.2459 15.2763 57.9853 20.9343C59.0679 21.9904 60.0214 23.1712 60.8256 24.452C60.8508 24.495 60.8673 24.5425 60.8742 24.5919C60.881 24.6413 60.8781 24.6915 60.8655 24.7397C60.8529 24.788 60.8309 24.8332 60.8008 24.873C60.7708 24.9127 60.7331 24.9461 60.6901 24.9713L58.1388 26.475C58.0565 26.5236 57.9584 26.5381 57.8656 26.5153C57.7727 26.4925 57.6925 26.4343 57.6421 26.3531C57.0007 25.3423 56.2429 24.4102 55.3843 23.576C50.3268 18.6088 41.58 15.6239 31.9978 15.6239C16.9066 15.6239 4.63312 22.9844 4.63312 32.0337C4.63312 41.0831 16.9066 48.4481 31.9978 48.4481C43.4088 48.4481 53.6729 44.1311 57.6692 37.6783C57.718 37.5966 57.7971 37.5376 57.8893 37.5139C57.9814 37.4902 58.0792 37.5038 58.1614 37.5518L60.7217 39.051C60.7648 39.0762 60.8025 39.1096 60.8325 39.1495C60.8624 39.1894 60.8842 39.2348 60.8964 39.2832C60.9085 39.3315 60.911 39.3818 60.9035 39.4311C60.896 39.4805 60.8787 39.5278 60.8527 39.5703C56.1429 47.1882 44.8764 52.1147 31.9978 52.1147Z" fill="#233328"/>
<path d="M31.9977 11.9031C42.5327 11.9031 52.2458 15.2763 57.9852 20.9344C59.0678 21.9904 60.0213 23.1712 60.8255 24.452C60.8757 24.5386 60.89 24.6413 60.8656 24.7383C60.8411 24.8353 60.7798 24.9189 60.6946 24.9713L58.1387 26.475C58.0829 26.5086 58.0187 26.5258 57.9536 26.5247C57.8913 26.525 57.8301 26.5094 57.7755 26.4793C57.721 26.4493 57.6751 26.4059 57.642 26.3531C57.0006 25.3423 56.2428 24.4102 55.3842 23.576C50.3267 18.6088 41.5799 15.624 31.9977 15.624C16.9065 15.624 4.63304 22.9845 4.63304 32.0338C4.63304 41.0831 16.9065 48.4481 31.9977 48.4481C43.4087 48.4481 53.6728 44.1311 57.6691 37.6783C57.7005 37.6248 57.7454 37.5804 57.7992 37.5495C57.8531 37.5186 57.9141 37.5023 57.9762 37.5022C58.041 37.5032 58.1046 37.5203 58.1613 37.5519L60.7217 39.0511C60.7648 39.0762 60.8024 39.1097 60.8324 39.1495C60.8624 39.1894 60.8841 39.2348 60.8963 39.2832C60.9085 39.3316 60.9109 39.3819 60.9034 39.4312C60.8959 39.4805 60.8786 39.5278 60.8526 39.5704C56.1428 47.2243 44.8763 52.1509 31.9977 52.1509C14.8654 52.1509 0.925698 43.1196 0.925698 32.0338C0.925698 20.9479 14.8654 11.9031 31.9977 11.9031ZM31.9977 10.9774C14.3552 10.9774 0 20.4151 0 32.0202C0 43.6254 14.3552 53.0676 31.9977 53.0676C45.1382 53.0676 56.775 47.9559 61.6428 40.04C61.7343 39.8934 61.795 39.7298 61.8214 39.559C61.8478 39.3883 61.8393 39.2139 61.7964 39.0465C61.7533 38.8782 61.6772 38.7201 61.5725 38.5813C61.4679 38.4426 61.3368 38.326 61.1868 38.2383L58.6264 36.7391C58.4286 36.6249 58.2045 36.5642 57.9762 36.563C57.7566 36.5633 57.5407 36.6194 57.3488 36.726C57.1568 36.8327 56.9952 36.9863 56.8789 37.1726C53.0406 43.3545 43.0384 47.5088 31.9977 47.5088C24.8676 47.5088 18.1664 45.8471 13.1315 42.8261C8.24555 39.8955 5.55874 36.0527 5.55874 32.0202C5.55874 27.9878 8.26812 24.145 13.1315 21.2143C18.1664 18.1979 24.8721 16.5362 31.9977 16.5362C41.3451 16.5362 49.8435 19.4081 54.7339 24.2127C55.5398 24.9962 56.2521 25.8705 56.8563 26.8182C57.0362 27.1024 57.3192 27.3059 57.6459 27.3859C57.9726 27.4658 58.3175 27.4162 58.6084 27.2472L61.1642 25.739C61.4634 25.5565 61.6803 25.2652 61.7693 24.9262C61.8101 24.7591 61.8172 24.5856 61.79 24.4158C61.7629 24.246 61.7021 24.0833 61.6112 23.9373C60.7695 22.5935 59.7706 21.355 58.6355 20.248C52.729 14.4364 42.7675 10.9639 31.9932 10.9639L31.9977 10.9774Z" fill="white"/>
<path d="M32.007 52.1195C14.8476 52.1195 0.93042 43.0883 0.93042 31.9979C0.93042 20.9075 14.8702 11.9033 32.007 11.9033C42.5419 11.9033 52.2551 15.2765 57.9944 20.9346C59.1674 22.0776 60.1874 23.3678 61.0289 24.7729L57.8364 26.6514C57.1574 25.5244 56.3363 24.4893 55.3934 23.5717C50.3314 18.6045 41.5891 15.6197 32.007 15.6197C16.9157 15.6197 4.63776 22.9802 4.63776 32.0295C4.63776 41.0788 16.9157 48.4438 32.007 48.4438C43.5941 48.4438 53.9845 43.9914 57.859 37.367L61.0605 39.2409C56.4727 47.0485 45.0662 52.1195 32.007 52.1195Z" fill="#233328"/>
<path d="M60.9836 30.1464H23.7387V33.8537H47.9154C47.3419 48.0825 40.2388 59.367 31.5417 59.367C22.5104 59.367 15.1319 47.0891 15.1319 31.9978C15.1319 16.9066 22.4924 4.6286 31.5417 4.6286C39.2183 4.6286 45.9917 13.7637 47.5993 26.3443L51.275 25.8927C49.4281 11.4427 41.1284 0.943848 31.5417 0.943848C20.4513 0.943848 11.4246 14.8836 11.4246 32.0159C11.4246 49.1482 20.4558 63.0924 31.5417 63.0924C42.2347 63.0924 50.9995 50.1461 51.6227 33.8718H60.9836V30.1464Z" fill="#233328"/>
<path d="M32.007 52.1195C14.8476 52.1195 0.93042 43.0883 0.93042 31.9979C0.93042 20.9075 14.8702 11.9033 32.007 11.9033C42.5419 11.9033 52.2551 15.2765 57.9944 20.9346C59.1674 22.0776 60.1874 23.3678 61.0289 24.7729L57.8364 26.6514C57.1574 25.5244 56.3363 24.4893 55.3934 23.5717C50.3314 18.6045 41.5891 15.6197 32.007 15.6197C16.9157 15.6197 4.63776 22.9802 4.63776 32.0295C4.63776 41.0788 16.9157 48.4438 32.007 48.4438C43.5941 48.4438 53.9845 43.9914 57.859 37.367L61.0605 39.2409C56.4727 47.0485 45.0662 52.1195 32.007 52.1195Z" fill="#233328"/>
<path d="M60.9836 30.1464H23.7387V33.8537H47.9154C47.3419 48.0825 40.2388 59.367 31.5417 59.367C22.5104 59.367 15.1319 47.0891 15.1319 31.9978C15.1319 16.9066 22.4924 4.6286 31.5417 4.6286C39.2183 4.6286 45.9917 13.7637 47.5993 26.3443L51.275 25.8927C49.4281 11.4427 41.1284 0.943848 31.5417 0.943848C20.4513 0.943848 11.4246 14.8836 11.4246 32.0159C11.4246 49.1482 20.4558 63.0924 31.5417 63.0924C42.2347 63.0924 50.9995 50.1461 51.6227 33.8718H60.9836V30.1464Z" fill="#233328"/>
<path d="M60.6041 30.1462H24.1043C24.0557 30.1462 24.0075 30.1558 23.9626 30.1744C23.9177 30.193 23.8769 30.2202 23.8425 30.2546C23.8081 30.289 23.7808 30.3298 23.7622 30.3747C23.7436 30.4197 23.734 30.4678 23.734 30.5165V33.4787C23.7334 33.5277 23.7426 33.5763 23.7609 33.6218C23.7793 33.6672 23.8064 33.7086 23.8409 33.7435C23.8753 33.7783 23.9163 33.806 23.9616 33.8249C24.0068 33.8438 24.0553 33.8535 24.1043 33.8535H47.5133C47.5643 33.8528 47.6149 33.8626 47.6619 33.8823C47.7089 33.9021 47.7513 33.9313 47.7864 33.9681C47.8216 34.005 47.8488 34.0488 47.8663 34.0966C47.8838 34.1445 47.8912 34.1955 47.8881 34.2464C47.2017 48.29 40.1303 59.3668 31.537 59.3668C22.5058 59.3668 15.1227 47.0888 15.1227 31.9976C15.1227 16.9063 22.4877 4.62836 31.537 4.62836C39.1549 4.62836 45.8516 13.5874 47.5449 25.9828C47.5511 26.0305 47.5666 26.0766 47.5906 26.1184C47.6146 26.1602 47.6465 26.1968 47.6847 26.2262C47.7229 26.2555 47.7665 26.2771 47.813 26.2896C47.8596 26.302 47.9081 26.3052 47.9559 26.2989L50.8955 25.924C50.9943 25.9095 51.0835 25.857 51.1442 25.7777C51.2049 25.6985 51.2323 25.5987 51.2206 25.4996C49.2744 11.2347 41.0379 0.925537 31.537 0.925537C20.4421 0.925537 11.4199 14.8653 11.4199 31.9976C11.4199 49.1299 20.4512 63.0741 31.537 63.0741C42.1488 63.0741 50.8684 50.313 51.6 34.2057C51.6035 34.1111 51.6436 34.0215 51.7118 33.9558C51.78 33.8901 51.871 33.8534 51.9657 33.8535H60.6041C60.6531 33.8535 60.7017 33.8438 60.7469 33.8249C60.7921 33.806 60.8331 33.7783 60.8676 33.7435C60.902 33.7086 60.9292 33.6672 60.9475 33.6218C60.9659 33.5763 60.975 33.5277 60.9744 33.4787V30.5165C60.9744 30.4182 60.9354 30.3241 60.866 30.2546C60.7965 30.1852 60.7023 30.1462 60.6041 30.1462Z" fill="#233328"/>
<path d="M31.537 0.92558C41.0198 0.92558 49.2744 11.2348 51.2206 25.4996C51.2322 25.5988 51.2048 25.6985 51.1441 25.7778C51.0834 25.857 50.9942 25.9095 50.8955 25.9241L47.9558 26.2989H47.9061C47.8175 26.2975 47.7323 26.2644 47.666 26.2056C47.5997 26.1468 47.5568 26.0661 47.5449 25.9783C45.8515 13.5829 39.1549 4.6284 31.537 4.6284C22.5057 4.6284 15.1227 16.9019 15.1227 31.9931C15.1227 47.0843 22.4877 59.3623 31.537 59.3623C40.1167 59.3623 47.2017 48.2855 47.8881 34.2419C47.8912 34.191 47.8838 34.14 47.8663 34.0922C47.8488 34.0443 47.8216 34.0005 47.7864 33.9637C47.7512 33.9268 47.7088 33.8976 47.6618 33.8778C47.6148 33.8581 47.5642 33.8483 47.5133 33.849H24.1043C24.0552 33.849 24.0067 33.8393 23.9615 33.8204C23.9163 33.8015 23.8753 33.7738 23.8408 33.739C23.8064 33.7041 23.7792 33.6628 23.7609 33.6173C23.7425 33.5719 23.7334 33.5232 23.734 33.4742V30.512C23.734 30.4633 23.7436 30.4152 23.7622 30.3703C23.7808 30.3254 23.808 30.2845 23.8424 30.2501C23.8768 30.2158 23.9176 30.1885 23.9626 30.1699C24.0075 30.1513 24.0556 30.1417 24.1043 30.1417H60.6041C60.7023 30.1417 60.7965 30.1807 60.8659 30.2501C60.9354 30.3196 60.9744 30.4138 60.9744 30.512V33.4742C60.975 33.5232 60.9658 33.5719 60.9475 33.6173C60.9292 33.6628 60.902 33.7041 60.8675 33.739C60.8331 33.7738 60.792 33.8015 60.7468 33.8204C60.7016 33.8393 60.6531 33.849 60.6041 33.849H51.9657C51.871 33.849 51.78 33.8856 51.7117 33.9513C51.6435 34.017 51.6034 34.1066 51.5999 34.2012C50.8684 50.3085 42.1487 63.0697 31.537 63.0697C20.4421 63.0697 11.4199 49.1299 11.4199 31.9931C11.4199 14.8563 20.4511 0.92106 31.537 0.92106V0.92558ZM31.537 -0.00463867C19.9318 -0.00463867 10.4941 14.3505 10.4941 31.9931C10.4941 49.6357 19.9318 63.9954 31.537 63.9954C36.9557 63.9954 42.1171 60.8706 46.0367 55.2034C49.7711 49.7847 52.0605 42.5597 52.4985 34.7747H60.6267C60.9716 34.7747 61.3024 34.6377 61.5463 34.3938C61.7902 34.1499 61.9272 33.8191 61.9272 33.4742V30.512C61.926 30.1678 61.7884 29.8382 61.5447 29.5953C61.3009 29.3524 60.9708 29.216 60.6267 29.216H24.1043C23.7601 29.216 23.43 29.3524 23.1862 29.5953C22.9425 29.8382 22.8049 30.1678 22.8037 30.512V33.4742C22.8037 33.8191 22.9408 34.1499 23.1847 34.3938C23.4286 34.6377 23.7593 34.7747 24.1043 34.7747H46.9308C46.1044 48.0868 39.4077 58.4366 31.537 58.4366C27.5 58.4366 23.6617 55.7272 20.7311 50.8594C17.7147 45.829 16.0529 39.1188 16.0529 31.9931C16.0529 24.8674 17.7147 18.1617 20.7311 13.1268C23.6617 8.24089 27.5045 5.5541 31.537 5.5541C38.6536 5.5541 45.0026 14.197 46.6282 26.1047C46.6706 26.414 46.8232 26.6976 47.058 26.9033C47.2928 27.1091 47.594 27.2231 47.9061 27.2246H48.0732L51.0129 26.8498C51.1832 26.8276 51.3475 26.7719 51.4962 26.6861C51.645 26.6002 51.7753 26.4858 51.8798 26.3495C51.9842 26.2131 52.0608 26.0575 52.105 25.8915C52.1491 25.7255 52.1601 25.5525 52.1373 25.3822C51.1755 18.3153 48.6151 11.894 44.9123 7.29262C41.1508 2.59637 36.3958 0.00890766 31.5144 0.00890766L31.537 -0.00463867Z" fill="white"/>
<path d="M31.9978 52.1147C14.8655 52.1147 0.925781 43.0835 0.925781 31.9976C0.925781 20.9118 14.8655 11.9031 31.9978 11.9031C42.5328 11.9031 52.2459 15.2763 57.9853 20.9343C59.0679 21.9904 60.0214 23.1712 60.8256 24.452C60.8508 24.495 60.8673 24.5425 60.8742 24.5919C60.881 24.6413 60.8781 24.6915 60.8655 24.7397C60.8529 24.788 60.8309 24.8332 60.8008 24.873C60.7708 24.9127 60.7331 24.9461 60.6901 24.9713L58.1388 26.475C58.0565 26.5236 57.9584 26.5381 57.8656 26.5153C57.7727 26.4925 57.6925 26.4343 57.6421 26.3531C57.0007 25.3423 56.2429 24.4102 55.3843 23.576C50.3268 18.6088 41.58 15.6239 31.9978 15.6239C16.9066 15.6239 4.63312 22.9844 4.63312 32.0337C4.63312 41.0831 16.9066 48.4481 31.9978 48.4481C43.4088 48.4481 53.6729 44.1311 57.6692 37.6783C57.718 37.5966 57.7971 37.5376 57.8893 37.5139C57.9814 37.4902 58.0792 37.5038 58.1614 37.5518L60.7217 39.051C60.7648 39.0762 60.8025 39.1096 60.8325 39.1495C60.8624 39.1894 60.8842 39.2348 60.8964 39.2832C60.9085 39.3315 60.911 39.3818 60.9035 39.4311C60.896 39.4805 60.8787 39.5278 60.8527 39.5703C56.1429 47.1882 44.8764 52.1147 31.9978 52.1147Z" fill="#233328"/>
<path d="M31.9977 11.9031C42.5327 11.9031 52.2458 15.2763 57.9852 20.9344C59.0678 21.9904 60.0213 23.1712 60.8255 24.452C60.8757 24.5386 60.89 24.6413 60.8656 24.7383C60.8411 24.8353 60.7798 24.9189 60.6946 24.9713L58.1387 26.475C58.0829 26.5086 58.0187 26.5258 57.9536 26.5247C57.8913 26.525 57.8301 26.5094 57.7755 26.4793C57.721 26.4493 57.6751 26.4059 57.642 26.3531C57.0006 25.3423 56.2428 24.4102 55.3842 23.576C50.3267 18.6088 41.5799 15.624 31.9977 15.624C16.9065 15.624 4.63304 22.9845 4.63304 32.0338C4.63304 41.0831 16.9065 48.4481 31.9977 48.4481C43.4087 48.4481 53.6728 44.1311 57.6691 37.6783C57.7005 37.6248 57.7454 37.5804 57.7992 37.5495C57.8531 37.5186 57.9141 37.5023 57.9762 37.5022C58.041 37.5032 58.1046 37.5203 58.1613 37.5519L60.7217 39.0511C60.7648 39.0762 60.8024 39.1097 60.8324 39.1495C60.8624 39.1894 60.8841 39.2348 60.8963 39.2832C60.9085 39.3316 60.9109 39.3819 60.9034 39.4312C60.8959 39.4805 60.8786 39.5278 60.8526 39.5704C56.1428 47.2243 44.8763 52.1509 31.9977 52.1509C14.8654 52.1509 0.925698 43.1196 0.925698 32.0338C0.925698 20.9479 14.8654 11.9031 31.9977 11.9031ZM31.9977 10.9774C14.3552 10.9774 0 20.4151 0 32.0202C0 43.6254 14.3552 53.0676 31.9977 53.0676C45.1382 53.0676 56.775 47.9559 61.6428 40.04C61.7343 39.8934 61.795 39.7298 61.8214 39.559C61.8478 39.3883 61.8393 39.2139 61.7964 39.0465C61.7533 38.8782 61.6772 38.7201 61.5725 38.5813C61.4679 38.4426 61.3368 38.326 61.1868 38.2383L58.6264 36.7391C58.4286 36.6249 58.2045 36.5642 57.9762 36.563C57.7566 36.5633 57.5407 36.6194 57.3488 36.726C57.1568 36.8327 56.9952 36.9863 56.8789 37.1726C53.0406 43.3545 43.0384 47.5088 31.9977 47.5088C24.8676 47.5088 18.1664 45.8471 13.1315 42.8261C8.24555 39.8955 5.55874 36.0527 5.55874 32.0202C5.55874 27.9878 8.26812 24.145 13.1315 21.2143C18.1664 18.1979 24.8721 16.5362 31.9977 16.5362C41.3451 16.5362 49.8435 19.4081 54.7339 24.2127C55.5398 24.9962 56.2521 25.8705 56.8563 26.8182C57.0362 27.1024 57.3192 27.3059 57.6459 27.3859C57.9726 27.4658 58.3175 27.4162 58.6084 27.2472L61.1642 25.739C61.4634 25.5565 61.6803 25.2652 61.7693 24.9262C61.8101 24.7591 61.8172 24.5856 61.79 24.4158C61.7629 24.246 61.7021 24.0833 61.6112 23.9373C60.7695 22.5935 59.7706 21.355 58.6355 20.248C52.729 14.4364 42.7675 10.9639 31.9932 10.9639L31.9977 10.9774Z" fill="white"/>
<path d="M32.007 52.1195C14.8476 52.1195 0.93042 43.0883 0.93042 31.9979C0.93042 20.9075 14.8702 11.9033 32.007 11.9033C42.5419 11.9033 52.2551 15.2765 57.9944 20.9346C59.1674 22.0776 60.1874 23.3678 61.0289 24.7729L57.8364 26.6514C57.1574 25.5244 56.3363 24.4893 55.3934 23.5717C50.3314 18.6045 41.5891 15.6197 32.007 15.6197C16.9157 15.6197 4.63776 22.9802 4.63776 32.0295C4.63776 41.0788 16.9157 48.4438 32.007 48.4438C43.5941 48.4438 53.9845 43.9914 57.859 37.367L61.0605 39.2409C56.4727 47.0485 45.0662 52.1195 32.007 52.1195Z" fill="#233328"/>
<path d="M60.9836 30.1464H23.7387V33.8537H47.9154C47.3419 48.0825 40.2388 59.367 31.5417 59.367C22.5104 59.367 15.1319 47.0891 15.1319 31.9978C15.1319 16.9066 22.4924 4.6286 31.5417 4.6286C39.2183 4.6286 45.9917 13.7637 47.5993 26.3443L51.275 25.8927C49.4281 11.4427 41.1284 0.943848 31.5417 0.943848C20.4513 0.943848 11.4246 14.8836 11.4246 32.0159C11.4246 49.1482 20.4558 63.0924 31.5417 63.0924C42.2347 63.0924 50.9995 50.1461 51.6227 33.8718H60.9836V30.1464Z" fill="#233328"/>
<path d="M32.007 52.1195C14.8476 52.1195 0.93042 43.0883 0.93042 31.9979C0.93042 20.9075 14.8702 11.9033 32.007 11.9033C42.5419 11.9033 52.2551 15.2765 57.9944 20.9346C59.1674 22.0776 60.1874 23.3678 61.0289 24.7729L57.8364 26.6514C57.1574 25.5244 56.3363 24.4893 55.3934 23.5717C50.3314 18.6045 41.5891 15.6197 32.007 15.6197C16.9157 15.6197 4.63776 22.9802 4.63776 32.0295C4.63776 41.0788 16.9157 48.4438 32.007 48.4438C43.5941 48.4438 53.9845 43.9914 57.859 37.367L61.0605 39.2409C56.4727 47.0485 45.0662 52.1195 32.007 52.1195Z" fill="#233328"/>
<path d="M60.9836 30.1464H23.7387V33.8537H47.9154C47.3419 48.0825 40.2388 59.367 31.5417 59.367C22.5104 59.367 15.1319 47.0891 15.1319 31.9978C15.1319 16.9066 22.4924 4.6286 31.5417 4.6286C39.2183 4.6286 45.9917 13.7637 47.5993 26.3443L51.275 25.8927C49.4281 11.4427 41.1284 0.943848 31.5417 0.943848C20.4513 0.943848 11.4246 14.8836 11.4246 32.0159C11.4246 49.1482 20.4558 63.0924 31.5417 63.0924C42.2347 63.0924 50.9995 50.1461 51.6227 33.8718H60.9836V30.1464Z" fill="#233328"/>
</g>
<defs>
<clipPath id="clip0_961_1194">
<rect width="61.9047" height="64" fill="white"/>
</clipPath>
</defs>
</svg>
