<svg width="370" height="64" viewBox="0 0 370 64" fill="none" xmlns="http://www.w3.org/2000/svg">
<path fill-rule="evenodd" clip-rule="evenodd" d="M124.879 62.6847C122.292 62.0035 119.807 60.9818 117.489 59.6463C115.229 58.3358 113.143 56.7441 111.283 54.9092C109.406 53.0143 107.845 50.83 106.661 48.4398C105.341 45.9739 104.321 43.359 103.623 40.6507C102.874 37.7174 102.519 34.6975 102.567 31.6706C102.583 28.6919 102.937 25.7246 103.623 22.8258C104.3 20.1515 105.321 17.5765 106.661 15.1654C107.944 12.8085 109.593 10.6705 111.547 8.83123C113.426 6.96282 115.558 5.36815 117.881 4.09418C120.212 2.78059 122.697 1.76002 125.278 1.05568C127.955 0.373647 130.704 0.0191584 133.466 0C134.914 0 136.369 7.32392e-06 137.824 0.135353C138.699 0.216736 139.476 0.29567 140.244 0.373629C140.753 0.425319 141.257 0.47658 141.783 0.527842C142.491 0.596815 143.162 0.706683 143.815 0.81357C144.379 0.905938 144.929 0.99608 145.478 1.05568L148.916 1.98281L150.892 17.4324L149.444 17.6963C148.633 15.1319 147.57 12.6542 146.27 10.2997C145.215 8.55349 143.926 6.95971 142.44 5.56265C141.066 4.35616 139.451 3.45642 137.703 2.92344C135.855 2.40188 133.945 2.1355 132.025 2.13169C130.288 2.16331 128.561 2.39031 126.875 2.80841C125.208 3.29595 123.615 4.00615 122.138 4.91978C120.591 5.93543 119.21 7.18405 118.044 8.62145C116.739 10.2203 115.67 11.9978 114.87 13.8999C113.97 16.1685 113.264 18.5093 112.759 20.8972C112.234 23.7729 111.969 26.6901 111.967 29.6134C111.985 33.9661 112.473 38.3042 113.422 42.5523C114.274 46.1049 115.701 49.4946 117.645 52.5881C119.362 55.2258 121.612 57.4755 124.249 59.1929C126.88 60.7742 129.897 61.5963 132.966 61.5681C134.94 61.5947 136.904 61.2811 138.772 60.641C140.534 60.0101 142.147 59.0217 143.509 57.7379C145.037 56.2758 146.327 54.5839 147.332 52.7234C148.627 50.436 149.682 48.0208 150.479 45.5163L151.927 45.7802L149.159 61.3448L145.329 62.1366C145.039 62.1961 144.749 62.2553 144.46 62.3142L144.459 62.3143L144.457 62.3147C143.432 62.5236 142.422 62.7294 141.499 62.9351C140.157 63.1897 138.801 63.366 137.439 63.463L137.215 63.4828C135.835 63.6051 134.461 63.7269 133.081 63.7269C130.315 63.7128 127.56 63.3628 124.879 62.6847ZM162.119 61.7576C163.276 61.6062 164.422 61.3801 165.55 61.0809C166.295 60.8471 166.974 60.4415 167.533 59.8966C168.025 59.2891 168.343 58.5594 168.453 57.7852C168.608 56.6024 168.696 55.4117 168.717 54.2189V9.86656C168.696 8.67376 168.608 7.48307 168.453 6.30023C168.344 5.52571 168.026 4.79561 167.533 4.18886C166.954 3.66884 166.281 3.26455 165.55 2.99784C164.42 2.70772 163.274 2.48179 162.119 2.32112V0.967678H183.903V2.32112C182.745 2.46918 181.599 2.69526 180.472 2.99784C179.683 3.12809 178.974 3.55401 178.489 4.18886C177.945 4.76337 177.619 5.51047 177.568 6.30023C177.413 7.48307 177.325 8.67376 177.305 9.86656V54.361C177.312 55.4773 177.393 56.5918 177.548 57.6973C177.707 58.482 178.071 59.2106 178.604 59.8086C179.249 60.3442 180.02 60.7074 180.844 60.8643C182.019 61.083 183.215 61.1715 184.41 61.1282H185.337C187.449 61.1282 189.296 60.9996 190.751 60.8643C192.18 60.7317 193.594 60.4666 194.974 60.0725C196.149 59.7829 197.267 59.293 198.276 58.6244C199.321 57.9304 200.256 57.0841 201.051 56.1137C202.004 54.9665 202.842 53.729 203.555 52.4188C204.353 50.9639 205.273 49.245 206.201 47.269L207.649 47.5329L203.818 63.0975H162.119V61.7576ZM222.062 58.3994C224.09 60.4075 226.586 61.88 229.324 62.6847C232.637 63.6435 236.084 64.0549 239.529 63.9028C242.489 63.9277 245.433 63.4706 248.245 62.5493C250.723 61.6338 252.974 60.1933 254.843 58.3266C256.694 56.2174 258.078 53.7405 258.904 51.0586C259.984 47.692 260.477 44.1642 260.359 40.6304V22.6701C260.359 19.4895 260.359 16.8638 260.487 14.7525C260.489 12.9406 260.622 11.1312 260.887 9.33872C261.052 8.15959 261.361 7.0051 261.807 5.90097C262.089 5.11469 262.595 4.42793 263.262 3.92495C263.91 3.38907 264.682 3.0259 265.508 2.86927C266.507 2.62778 267.519 2.45147 268.54 2.34142V0.987979H249.924V2.34142C250.947 2.4515 251.962 2.62781 252.962 2.86927C253.747 3.02826 254.475 3.39253 255.073 3.92495C255.701 4.46585 256.198 5.14127 256.528 5.90097C257.035 6.98374 257.347 8.14755 257.449 9.33872C257.713 11.1312 257.846 12.9406 257.848 14.7525V40.9078C257.872 43.251 257.696 45.592 257.32 47.9051C256.945 49.7252 256.369 51.4978 255.601 53.1903C254.953 54.6464 254.008 55.9511 252.827 57.0205C251.788 58.0844 250.587 58.9754 249.267 59.6598C247.931 60.3351 246.507 60.8225 245.038 61.1079C243.422 61.3719 241.788 61.5054 240.152 61.5072C238.026 61.5075 235.92 61.1033 233.946 60.3162C232.033 59.5139 230.353 58.2432 229.06 56.6213C227.619 54.6757 226.546 52.4832 225.893 50.1518C225.034 47.1038 224.633 43.9452 224.702 40.7792V9.86657C224.726 8.67392 224.814 7.48341 224.966 6.30023C225.08 5.52596 225.4 4.79664 225.893 4.18886C226.378 3.55401 227.088 3.12809 227.876 2.99784C229.049 2.70693 230.237 2.48101 231.436 2.32112V0.967678H209.523V2.32112C210.679 2.48179 211.824 2.70772 212.954 2.99784C213.684 3.26752 214.356 3.67148 214.937 4.18886C215.49 4.77257 215.858 5.50742 215.993 6.30023C216.212 7.47566 216.3 8.6717 216.257 9.86657V40.6168C216.142 44.1944 216.632 47.7656 217.705 51.1804C218.537 53.9106 220.034 56.3913 222.062 58.3994ZM277.256 61.7576C278.413 61.6069 279.559 61.3809 280.687 61.0809C281.433 60.8488 282.112 60.4429 282.67 59.8966C283.185 59.3027 283.508 58.5665 283.597 57.7852C283.749 56.602 283.837 55.4115 283.861 54.2189V9.86657C283.837 8.67392 283.749 7.48341 283.597 6.30023C283.483 5.52596 283.163 4.79664 282.67 4.18886C282.091 3.66884 281.418 3.26455 280.687 2.99784C279.557 2.70647 278.412 2.48052 277.256 2.32112V0.967678H297.727C300.648 0.968226 303.564 1.23551 306.436 1.76621C308.775 2.18118 311.015 3.03043 313.041 4.27006C314.775 5.31459 316.182 6.82443 317.101 8.62815C318.107 10.6334 318.604 12.855 318.55 15.0976C318.52 16.9944 318.163 18.8718 317.494 20.6467C316.81 22.2298 315.824 23.6642 314.591 24.8695C313.292 26.146 311.772 27.1756 310.104 27.908C308.281 28.7205 306.378 29.3397 304.426 29.7554V29.8907C306.844 30.0586 309.235 30.5014 311.552 31.2104C313.647 31.8266 315.615 32.8096 317.365 34.1135C318.981 35.3388 320.292 36.9205 321.196 38.7355C322.17 40.7485 322.635 42.9702 322.549 45.205C322.559 47.7971 322.02 50.3619 320.966 52.7301C319.916 54.9389 318.326 56.8474 316.344 58.2792C314.109 59.8671 311.602 61.0302 308.947 61.7102C305.75 62.5039 302.469 62.9039 299.175 62.9013H277.391V61.7576H277.256ZM292.3 54.246V31.4185L297.314 31.5352C299.868 31.5413 302.407 31.9407 304.839 32.7195C306.687 33.2631 308.367 34.264 309.725 35.6294C310.929 36.9583 311.83 38.5331 312.364 40.2446C312.887 42.3179 313.153 44.4474 313.156 46.5855C313.249 48.8245 312.937 51.0619 312.236 53.1903C311.667 54.848 310.769 56.3739 309.597 57.6769C308.41 58.8717 306.962 59.7751 305.367 60.3162C303.522 60.8473 301.61 61.1139 299.689 61.1079H299.561C298.411 61.0873 297.263 60.9992 296.123 60.844C295.299 60.6872 294.529 60.3239 293.883 59.7883C293.289 59.2154 292.875 58.4816 292.692 57.6769C292.424 56.5532 292.292 55.4013 292.3 54.246ZM292.3 29.3952L297.456 29.2749C299.34 29.2249 301.208 28.9129 303.005 28.3478C304.52 27.803 305.879 26.8971 306.964 25.7086C308.036 24.4767 308.846 23.0401 309.346 21.4859C309.877 19.594 310.144 17.6378 310.138 15.6729C310.144 13.7968 309.877 11.9299 309.346 10.1305C308.892 8.63209 308.074 7.26962 306.964 6.1649C305.79 5.10017 304.407 4.29127 302.904 3.7896C301.014 3.25879 299.06 2.99235 297.098 2.99784H294.458C293.997 3.01933 293.541 3.10824 293.105 3.26175C292.817 3.41525 292.582 3.6508 292.428 3.93848C292.322 4.32377 292.279 4.72364 292.3 5.12274V29.3952ZM342.221 63.0773C343.277 63.2126 344.333 63.3412 345.524 63.4765C346.678 63.5282 347.824 63.7029 348.941 63.9976C350.76 64.0232 352.576 63.8462 354.355 63.4698C356.07 63.0791 357.749 62.5471 359.376 61.8795C360.886 61.1755 362.305 60.2892 363.599 59.2403C366.214 57.2313 368.149 54.4674 369.141 51.3227C370.314 47.4772 370.221 43.357 368.878 39.568C368.219 37.8192 367.234 36.2116 365.974 34.8309C364.668 33.3483 363.157 32.0586 361.488 31.0007C359.627 29.7697 357.685 28.6664 355.675 27.6983L350.66 25.0591C349.414 24.4544 348.221 23.7458 347.094 22.9409C346.087 22.1981 345.197 21.3084 344.455 20.3017C342.86 18.1213 342.025 15.4774 342.079 12.7766C342.007 11.1968 342.277 9.62021 342.871 8.15457C343.384 6.91224 344.147 5.78829 345.111 4.85216C346.047 3.951 347.177 3.27518 348.413 2.87612C349.693 2.45745 351.027 2.22943 352.372 2.1994C353.669 2.17203 354.962 2.35018 356.203 2.72724C357.494 3.09499 358.675 3.77611 359.64 4.71005C360.868 5.94784 361.892 7.37325 362.672 8.93279C363.709 11.235 364.549 13.6211 365.183 16.0654L366.638 15.8015L365.447 1.67156C364.961 1.52518 364.474 1.41835 363.985 1.31134L363.985 1.31129C363.548 1.21547 363.11 1.1195 362.672 0.994838C361.732 0.691315 360.756 0.51382 359.769 0.466996C358.797 0.440204 357.827 0.352066 356.866 0.203085C355.902 0.093172 354.932 0.0502083 353.963 0.0745064C351.35 0.0487216 348.755 0.49578 346.302 1.3941C344.162 2.13471 342.193 3.29985 340.514 4.81967C338.835 6.3395 337.48 8.18273 336.53 10.2389C335.614 12.2712 335.152 14.479 335.177 16.7083C335.2 18.4032 335.427 20.0891 335.854 21.7296C336.287 23.3392 337.005 24.8585 337.972 26.2163C339.074 27.6959 340.361 29.0286 341.802 30.1819C343.594 31.522 345.493 32.7125 347.48 33.7414L352.494 36.3874C353.92 37.0486 355.279 37.844 356.554 38.7627C357.631 39.6618 358.646 40.6317 359.593 41.6658C360.502 42.6977 361.176 43.9145 361.569 45.2322C361.998 46.736 362.226 48.2903 362.246 49.8541C362.336 51.6609 362.019 53.4648 361.319 55.1326C360.766 56.496 359.909 57.7156 358.815 58.6989C357.741 59.6521 356.48 60.3711 355.113 60.8103C353.699 61.24 352.232 61.4679 350.755 61.487C349.143 61.4802 347.544 61.2129 346.018 60.6952C344.477 60.1442 343.087 59.2404 341.958 58.056C340.511 56.6322 339.306 54.9818 338.391 53.1701C337.067 50.7809 336.005 48.2556 335.224 45.6382L333.769 45.9089L336.016 61.4735C337.005 61.8558 338.02 62.1657 339.054 62.4006C340.095 62.6909 341.153 62.9169 342.221 63.0773ZM78.1376 0.886496H76.0263V62.9487H78.1376V0.886496ZM15.2769 59.8223C17.6361 61.1551 20.1653 62.1613 22.7952 62.8134C25.6858 63.5045 28.656 63.8049 31.6264 63.7067C33.259 63.7249 34.8892 63.5775 36.4921 63.2668C38.0622 63.0391 39.6153 62.7068 41.1412 62.272L45.6752 61.1622C47.0935 60.8311 48.5343 60.6049 49.9859 60.4855L49.6543 54.5168V44.1426C49.5635 42.9223 49.6387 41.6953 49.8777 40.4951C50.0047 39.734 50.3083 39.0132 50.7642 38.3905C51.3201 37.856 52.0059 37.4758 52.7537 37.2875C53.1513 37.2102 53.5366 37.1228 53.9176 37.0364C54.7041 36.858 55.4724 36.6837 56.293 36.6108V35.2573H32.9528V36.6108C34.4048 36.7269 35.8459 36.9531 37.2636 37.2875C38.1618 37.4235 39.0049 37.8052 39.6997 38.3905C40.2793 38.9588 40.6653 39.6952 40.8028 40.4951C40.9178 41.7132 41.0261 42.9245 41.0261 44.1426V54.9702C41.1394 56.2251 40.9053 57.487 40.3494 58.6177C39.9333 59.5173 39.2347 60.2564 38.3598 60.7223C37.4087 61.2694 36.3523 61.6085 35.2604 61.7171C33.9679 61.8254 32.5536 61.9404 31.2001 61.9404C28.1875 61.927 25.2253 61.1667 22.5787 59.7276C19.8235 58.2286 17.4948 56.0536 15.8115 53.407C13.8413 50.3063 12.3899 46.9052 11.5143 43.3374C10.4492 38.9562 9.92866 34.4604 9.96458 29.9518C9.96503 27.0019 10.2437 24.0587 10.797 21.1612C11.2091 18.7259 11.9135 16.3493 12.8948 14.0827C13.7894 12.1894 14.9047 10.4085 16.2175 8.77718C17.4243 7.32188 18.8406 6.05386 20.4199 5.01461C21.8629 4.01515 23.4645 3.26698 25.157 2.80173C26.8164 2.3543 28.5273 2.12678 30.2459 2.12501C32.191 2.1029 34.1288 2.36507 35.9981 2.90324C37.7165 3.45823 39.3211 4.31782 40.7351 5.44094C42.287 6.7868 43.5963 8.38909 44.606 10.178C45.9101 12.5376 46.9495 15.0341 47.7054 17.622L49.14 17.4054L47.1504 1.91523L43.7195 1.23851C43.0895 1.1259 42.4578 1.04257 41.8099 0.957111C41.212 0.878237 40.6003 0.797553 39.9637 0.690365C39.297 0.578128 38.6355 0.522299 37.9706 0.466178C37.3125 0.410636 36.651 0.354807 35.9778 0.243727C34.5103 0.0580251 33.0306 -0.0143776 31.552 0.0271707C28.7213 0.0310104 25.9006 0.364858 23.1471 1.02195C20.5288 1.70676 18.0039 2.70898 15.6287 4.0063C13.2901 5.29454 11.1329 6.88747 9.21343 8.74335C7.25124 10.586 5.57281 12.7091 4.23277 15.0436C2.86336 17.4781 1.82338 20.0837 1.14014 22.7921C-0.339683 28.7103 -0.339683 34.9018 1.14014 40.82C1.82179 43.5611 2.86161 46.2004 4.23277 48.6699C5.4809 51.0339 7.07781 53.1967 8.96982 55.0853C10.8508 56.9393 12.9721 58.5326 15.2769 59.8223Z" fill="#E7DFE8"/>
</svg>
