<svg width="62" height="64" viewBox="0 0 62 64" fill="none" xmlns="http://www.w3.org/2000/svg">
<path d="M32.007 52.1195C14.8476 52.1195 0.93042 43.0883 0.93042 31.9979C0.93042 20.9075 14.8702 11.9033 32.007 11.9033C42.5419 11.9033 52.2551 15.2765 57.9944 20.9346C59.1674 22.0776 60.1874 23.3678 61.0289 24.7729L57.8364 26.6514C57.1574 25.5244 56.3363 24.4893 55.3934 23.5717C50.3314 18.6045 41.5891 15.6197 32.007 15.6197C16.9157 15.6197 4.63776 22.9802 4.63776 32.0295C4.63776 41.0788 16.9157 48.4438 32.007 48.4438C43.5941 48.4438 53.9845 43.9914 57.859 37.367L61.0605 39.2409C56.4727 47.0485 45.0662 52.1195 32.007 52.1195Z" fill="#233328"/>
<path d="M60.9836 30.1464H23.7387V33.8537H47.9154C47.3419 48.0825 40.2388 59.367 31.5417 59.367C22.5104 59.367 15.1319 47.0891 15.1319 31.9978C15.1319 16.9066 22.4924 4.6286 31.5417 4.6286C39.2183 4.6286 45.9917 13.7637 47.5993 26.3443L51.275 25.8927C49.4281 11.4427 41.1284 0.943848 31.5417 0.943848C20.4513 0.943848 11.4246 14.8836 11.4246 32.0159C11.4246 49.1482 20.4558 63.0924 31.5417 63.0924C42.2347 63.0924 50.9995 50.1461 51.6227 33.8718H60.9836V30.1464Z" fill="#233328"/>
</svg>
